<svg aria-hidden="true" xmlns="http://www.w3.org/2000/svg" xmlns:xlink="http://www.w3.org/1999/xlink"><symbol viewBox="0 0 100 100" fill="none" id="facebook" xmlns="http://www.w3.org/2000/svg">
<g clip-path="url(#aclip0_108_51)">
<path d="M94.6809 0H5.31915C2.38191 0 0 2.38191 0 5.31915V94.6809C0 97.6181 2.38191 100 5.31915 100H94.6809C97.6191 100 100 97.6181 100 94.6809V5.31915C100 2.38191 97.6191 0 94.6809 0ZM71.2021 22.7277L63.5149 22.7309C57.4894 22.7309 56.3223 25.5947 56.3223 29.7979V39.0649H70.6957L70.6915 53.5798H56.3223V90.8266H41.3319V53.5798H28.7979V39.0649H41.3319V28.3606C41.3319 15.9383 48.9202 9.1734 60 9.1734L71.2021 9.19149V22.7277Z" fill="currentColor"/>
</g>
<defs>
<clipPath id="aclip0_108_51">
<rect width="100" height="100" fill="currentColor"/>
</clipPath>
</defs>
</symbol><symbol viewBox="0 0 100 100" fill="none" id="instagram" xmlns="http://www.w3.org/2000/svg">
<g clip-path="url(#bclip0_108_75)">
<path d="M60.4269 49.9415C60.4269 55.9032 55.5946 60.7354 49.6329 60.7354C43.6711 60.7354 38.8389 55.9032 38.8389 49.9415C38.8389 43.9797 43.6711 39.1455 49.6329 39.1455C55.5946 39.1455 60.4269 43.9797 60.4269 49.9415Z" fill="currentColor"/>
<path d="M89.1943 0H10.8057C4.83808 0 0 4.83808 0 10.8057V89.1943C0 95.1619 4.83808 100 10.8057 100H89.1943C95.1619 100 100 95.1619 100 89.1943V10.8057C100 4.83808 95.1619 0 89.1943 0ZM81.8221 63.293C81.666 66.7402 81.1178 69.0948 80.318 71.153C79.4889 73.2833 78.3828 75.0897 76.5821 76.8904C74.7815 78.689 72.975 79.7971 70.8467 80.6243C68.7866 81.4261 66.4319 81.9723 62.9848 82.1303C59.5318 82.2883 58.4276 82.3254 49.6332 82.3254C40.8389 82.3254 39.7347 82.2883 36.2817 82.1303C32.8346 81.9723 30.4799 81.4261 28.4198 80.6243C26.2915 79.7971 24.485 78.689 22.6844 76.8904C20.8837 75.0897 19.7776 73.2833 18.9485 71.153C18.1487 69.0948 17.6024 66.7402 17.4444 63.293C17.2864 59.8381 17.2493 58.7359 17.2493 49.9415C17.2493 41.1451 17.2864 40.0429 17.4444 36.5899C17.6024 33.1428 18.1487 30.7881 18.9485 28.7281C19.7776 26.5997 20.8837 24.7932 22.6844 22.9926C24.485 21.192 26.2915 20.0839 28.4198 19.2567C30.4799 18.4569 32.8346 17.9087 36.2817 17.7526C39.7347 17.5946 40.8389 17.5576 49.6332 17.5576C58.4276 17.5576 59.5318 17.5946 62.9848 17.7526C66.4319 17.9087 68.7866 18.4569 70.8467 19.2567C72.975 20.0839 74.7815 21.192 76.5821 22.9926C78.3828 24.7932 79.4889 26.5997 80.318 28.7281C81.1178 30.7881 81.666 33.1428 81.8221 36.5899C81.9801 40.0429 82.0172 41.1451 82.0172 49.9415C82.0172 58.7359 81.9801 59.8381 81.8221 63.293ZM74.8791 30.8428C74.2918 29.3309 73.5895 28.252 72.4561 27.1186C71.3227 25.9852 70.2439 25.2829 68.732 24.6957C67.5907 24.2528 65.8759 23.7242 62.7195 23.5817C59.3036 23.4257 58.2794 23.3925 49.6332 23.3925C40.9871 23.3925 39.9629 23.4257 36.547 23.5817C33.3906 23.7242 31.6758 24.2528 30.5345 24.6957C29.0226 25.2829 27.9438 25.9852 26.8104 27.1186C25.6769 28.252 24.9746 29.3309 24.3874 30.8428C23.9446 31.984 23.4179 33.6988 23.2735 36.8553C23.1174 40.2692 23.0843 41.2934 23.0843 49.9415C23.0843 58.5876 23.1174 59.6118 23.2735 63.0277C23.4179 66.1842 23.9446 67.899 24.3874 69.0402C24.9746 70.5521 25.6769 71.6309 26.8104 72.7643C27.9438 73.8978 29.0226 74.5981 30.5345 75.1853C31.6758 75.6301 33.3906 76.1569 36.547 76.3012C39.961 76.4573 40.9852 76.4904 49.6332 76.4904C58.2813 76.4904 59.3055 76.4573 62.7195 76.3012C65.8759 76.1569 67.5907 75.6301 68.732 75.1853C70.2439 74.5981 71.3227 73.8978 72.4561 72.7643C73.5895 71.6309 74.2918 70.5521 74.8791 69.0402C75.3219 67.899 75.8486 66.1842 75.993 63.0277C76.1491 59.6118 76.1822 58.5876 76.1822 49.9415C76.1822 41.2934 76.1491 40.2692 75.993 36.8553C75.8486 33.6988 75.3219 31.984 74.8791 30.8428ZM49.6332 66.5704C40.4487 66.5704 33.0043 59.126 33.0043 49.9415C33.0043 40.7569 40.4487 33.3106 49.6332 33.3106C58.8178 33.3106 66.2622 40.7569 66.2622 49.9415C66.2622 59.126 58.8178 66.5704 49.6332 66.5704ZM66.9196 36.5412C64.7737 36.5412 63.0336 34.801 63.0336 32.6551C63.0336 30.5092 64.7737 28.769 66.9196 28.769C69.0656 28.769 70.8057 30.5092 70.8057 32.6551C70.8057 34.801 69.0656 36.5412 66.9196 36.5412Z" fill="currentColor"/>
</g>
<defs>
<clipPath id="bclip0_108_75">
<rect width="100" height="100" fill="currentColor"/>
</clipPath>
</defs>
</symbol><symbol viewBox="0 0 492 492" fill="none" id="left_arrow" xmlns="http://www.w3.org/2000/svg">
<path d="M198.608 246.104L382.664 62.04C387.732 56.984 390.52 50.224 390.52 43.016C390.52 35.804 387.732 29.048 382.664 23.984L366.536 7.864C361.476 2.792 354.712 0 347.504 0C340.296 0 333.54 2.792 328.476 7.864L109.328 227.008C104.244 232.088 101.46 238.876 101.48 246.092C101.46 253.34 104.24 260.12 109.328 265.204L328.272 484.136C333.336 489.208 340.092 492 347.304 492C354.512 492 361.268 489.208 366.336 484.136L382.46 468.016C392.952 457.524 392.952 440.444 382.46 429.956L198.608 246.104Z" fill="currentColor"/>
</symbol><symbol viewBox="0 0 100 100" fill="none" id="linkedin" xmlns="http://www.w3.org/2000/svg">
<g clip-path="url(#dclip0_109_85)">
<path d="M92.1875 0H7.8125C3.49609 0 0 3.49609 0 7.8125V92.1875C0 96.5039 3.49609 100 7.8125 100H92.1875C96.5039 100 100 96.5039 100 92.1875V7.8125C100 3.49609 96.5039 0 92.1875 0ZM36.0156 70.918H26.2695V39.7266H36.0156V70.918ZM30.8789 35.8203H30.8008C27.2656 35.8203 24.9805 33.4375 24.9805 30.4102C24.9805 27.3242 27.3437 25 30.9375 25C34.5312 25 36.7383 27.3242 36.8164 30.4102C36.8359 33.418 34.5508 35.8203 30.8789 35.8203ZM75 70.918H63.9453V54.7852C63.9453 50.5664 62.2266 47.6758 58.418 47.6758C55.5078 47.6758 53.8867 49.6289 53.1445 51.5039C52.8711 52.168 52.9102 53.1055 52.9102 54.0625V70.918H41.9531C41.9531 70.918 42.0898 42.3242 41.9531 39.7266H52.9102V44.6289C53.5547 42.4805 57.0508 39.4336 62.6367 39.4336C69.5703 39.4336 75 43.9258 75 53.5742V70.918Z" fill="currentColor"/>
</g>
<defs>
<clipPath id="dclip0_109_85">
<rect width="100" height="100" fill="currentColor"/>
</clipPath>
</defs>
</symbol><symbol viewBox="0 0 493 493" fill="none" id="right_arrow" xmlns="http://www.w3.org/2000/svg">
<g clip-path="url(#eclip0_134_36)">
<path d="M293.724 246.228L109.668 430.292C104.6 435.348 101.812 442.108 101.812 449.316C101.812 456.528 104.6 463.284 109.668 468.348L125.796 484.468C130.856 489.54 137.62 492.332 144.828 492.332C152.036 492.332 158.792 489.54 163.856 484.468L383.004 265.324C388.088 260.244 390.872 253.456 390.852 246.24C390.872 238.992 388.092 232.212 383.004 227.128L164.06 8.19604C158.996 3.12404 152.24 0.332031 145.028 0.332031C137.82 0.332031 131.064 3.12404 125.996 8.19604L109.872 24.316C99.3804 34.808 99.3804 51.888 109.872 62.376L293.724 246.228Z" fill="currentColor"/>
</g>
<defs>
<clipPath id="eclip0_134_36">
<rect width="492" height="492" fill="currentColor" transform="matrix(-1 0 0 -1 492.332 492.332)"/>
</clipPath>
</defs>
</symbol><symbol viewBox="0 0 100 100" fill="none" id="telegram" xmlns="http://www.w3.org/2000/svg">
<g clip-path="url(#fclip0_108_70)">
<path d="M70.074 35.4261L44.7161 56.1533L43.5229 57.1306C43.2608 57.3384 43.0896 57.6399 43.0456 57.9715L42.7786 60.1761L42.0456 66.3693C42.0524 66.4446 42.029 66.5196 41.9805 66.5776C41.932 66.6357 41.8624 66.6721 41.7871 66.6789C41.7117 66.6857 41.6368 66.6623 41.5787 66.6138C41.5207 66.5653 41.4842 66.4957 41.4774 66.4204L39.4149 60.2272L37.2843 53.892C37.1933 53.6081 37.205 53.3013 37.3171 53.0251C37.4293 52.7489 37.6348 52.5208 37.8979 52.3806L64.2843 37.2556L69.2502 34.4147C69.9718 33.9943 70.7104 34.9033 70.074 35.4261Z" fill="currentColor"/>
<path d="M86.3636 0H13.6364C10.0198 0 6.55131 1.43668 3.994 3.994C1.43668 6.55131 0 10.0198 0 13.6364L0 86.3636C0 89.9802 1.43668 93.4487 3.994 96.006C6.55131 98.5633 10.0198 100 13.6364 100H86.3636C89.9802 100 93.4487 98.5633 96.006 96.006C98.5633 93.4487 100 89.9802 100 86.3636V13.6364C100 10.0198 98.5633 6.55131 96.006 3.994C93.4487 1.43668 89.9802 0 86.3636 0ZM81.1875 28.9432L71.4261 72.0739C70.9659 74.0966 68.3977 75.0114 66.5966 73.7784L51.858 63.7784L44.3523 70.875C44.0462 71.1622 43.6747 71.3703 43.27 71.4814C42.8653 71.5925 42.4396 71.6032 42.0298 71.5125C41.62 71.4218 41.2385 71.2325 40.9185 70.961C40.5984 70.6895 40.3495 70.344 40.1932 69.9545L37.483 62L34.7727 54.0455L20.2443 50.0682C19.8381 49.9795 19.4726 49.7591 19.2045 49.4412C18.9365 49.1234 18.781 48.7258 18.7622 48.3105C18.7434 47.8951 18.8624 47.4852 19.1006 47.1444C19.3389 46.8037 19.683 46.5511 20.0795 46.4261L76.2045 26.2045L77.2386 25.8352C79.4148 25.0739 81.6648 26.8352 81.1875 28.9432Z" fill="currentColor"/>
</g>
<defs>
<clipPath id="fclip0_108_70">
<rect width="100" height="100" fill="currentColor"/>
</clipPath>
</defs>
</symbol><symbol viewBox="0 0 100 100" fill="none" id="tiktok" xmlns="http://www.w3.org/2000/svg">
<g clip-path="url(#gclip0_108_49)">
<path d="M92.7879 0H7.21211C3.22871 0 0 3.22871 0 7.21211V92.7879C0 96.7713 3.22871 100 7.21211 100H92.7879C96.7713 100 100 96.7713 100 92.7879V7.21211C100 3.22871 96.7713 0 92.7879 0ZM75.0482 38.2732V45.0336C71.8604 45.0348 68.7629 44.4102 65.8418 43.1775C63.9635 42.3846 62.2135 41.3627 60.6129 40.1281L60.6609 60.9371C60.6408 65.6228 58.7871 70.0254 55.432 73.3414C52.7016 76.0406 49.2416 77.7572 45.4916 78.3127C44.6104 78.4432 43.7137 78.5102 42.8068 78.5102C38.7926 78.5102 34.9812 77.2096 31.8637 74.8103C31.277 74.3586 30.716 73.8689 30.1816 73.3414C26.5455 69.7477 24.6705 64.8766 24.9861 59.7525C25.2271 55.852 26.7887 52.132 29.392 49.2164C32.8363 45.3582 37.6549 43.2166 42.8068 43.2166C43.7137 43.2166 44.6104 43.2846 45.4916 43.4152V45.9148V52.8682C44.6563 52.5926 43.7639 52.441 42.8348 52.441C38.1277 52.441 34.3197 56.2813 34.39 60.9916C34.4346 64.0055 36.0811 66.64 38.5092 68.0922C39.6502 68.7748 40.9631 69.1975 42.3641 69.2744C43.4617 69.3346 44.5156 69.1818 45.4916 68.8596C48.8545 67.7486 51.2805 64.5898 51.2805 60.8645L51.2916 46.9297V21.4898H60.6018C60.6107 22.4123 60.7043 23.3125 60.8783 24.1846C61.5811 27.7148 63.5709 30.7777 66.3404 32.8658C68.7553 34.6873 71.7623 35.767 75.0217 35.767C75.0238 35.767 75.0506 35.767 75.0484 35.7648L75.0482 38.2732Z" fill="currentColor"/>
</g>
<defs>
<clipPath id="gclip0_108_49">
<rect width="100" height="100" fill="currentColor"/>
</clipPath>
</defs>
</symbol><symbol viewBox="0 0 100 100" fill="none" id="twitter" xmlns="http://www.w3.org/2000/svg">
<g clip-path="url(#hclip0_106_20)">
<path d="M92.1875 0H7.8125C3.49609 0 0 3.49609 0 7.8125V92.1875C0 96.5039 3.49609 100 7.8125 100H92.1875C96.5039 100 100 96.5039 100 92.1875V7.8125C100 3.49609 96.5039 0 92.1875 0ZM69.9609 42.2266C69.9805 42.6563 69.9805 43.1055 69.9805 43.5547C69.9805 57.1289 59.6484 72.793 40.7422 72.793C34.9414 72.793 29.5313 71.0938 25 68.1836C25.8008 68.2813 26.6211 68.3203 27.4609 68.3203C32.2656 68.3203 36.6992 66.6797 40.2148 63.9258C35.7227 63.8477 31.9141 60.8789 30.625 56.7969C31.25 56.9141 31.8945 56.9727 32.5586 56.9727C33.4961 56.9727 34.4141 56.8555 35.2734 56.6016C30.5664 55.6641 27.0312 51.5039 27.0312 46.5234V46.4063C28.418 47.168 30 47.6367 31.6797 47.6953C28.9258 45.8594 27.1094 42.6953 27.1094 39.1406C27.1094 37.2656 27.6172 35.4883 28.4961 33.9648C33.5742 40.1953 41.1328 44.2773 49.668 44.707C49.4922 43.9648 49.3945 43.1836 49.3945 42.3633C49.3945 36.6992 54.0039 32.0898 59.668 32.0898C62.6172 32.0898 65.293 33.3398 67.168 35.332C69.5117 34.8633 71.6992 34.0234 73.6914 32.832C72.9297 35.2344 71.2891 37.2461 69.1797 38.5156C71.25 38.2617 73.2422 37.7148 75.0781 36.8945C73.7109 38.9648 71.9727 40.7617 69.9609 42.2266Z" fill="currentColor"/>
</g>
<defs>
<clipPath id="hclip0_106_20">
<rect width="100" height="100" fill="currentColor"/>
</clipPath>
</defs>
</symbol><symbol viewBox="0 0 100 100" fill="none" id="vk" xmlns="http://www.w3.org/2000/svg">
<g clip-path="url(#iclip0_107_46)">
<path d="M93.6278 0H6.38628C2.85795 0 0 2.85795 0 6.37922V93.6208C0 97.1421 2.85795 100 6.38628 100H93.6208C97.1421 100 100 97.1421 100 93.6208V6.37922C100.007 2.85089 97.1491 0 93.6278 0ZM82.9511 60.9343C84.7788 62.7973 88.7446 65.9234 88.0248 69.1059C87.3615 72.0274 83.0005 70.9618 78.7665 71.1312C73.9327 71.3358 71.0677 71.4417 68.1603 69.1059C66.7913 67.998 65.9869 66.6855 64.6743 65.2177C63.4818 63.891 61.9787 61.5129 59.9323 61.6047C56.2557 61.7882 57.406 66.9113 56.1005 70.4043C35.6644 73.6222 27.4575 60.9978 20.2173 48.7474C16.7102 42.8128 11.6435 30.0685 11.6435 30.0685L26.0955 30.0191C26.0955 30.0191 30.7318 38.4518 31.9596 40.6252C33.004 42.4741 34.1543 43.9419 35.3398 45.5931C36.3348 46.9621 37.9084 49.6436 39.6302 49.4249C42.4317 49.065 42.9398 38.1977 41.2039 34.5565C40.5123 33.0816 38.854 32.5665 37.1392 32.0655C37.7179 28.4101 53.3484 27.648 55.8747 30.4848C59.5441 34.6059 53.3343 46.08 58.3586 49.4249C65.4153 45.7272 71.4417 30.2449 71.4417 30.2449L88.3636 30.3507C88.3636 30.3507 85.7173 38.7199 82.944 42.4317C81.3281 44.6052 75.965 49.446 76.1767 53.0379C76.3461 55.8817 80.7071 58.6479 82.9511 60.9343Z" fill="currentColor"/>
</g>
<defs>
<clipPath id="iclip0_107_46">
<rect width="100" height="100" fill="currentColor"/>
</clipPath>
</defs>
</symbol><symbol viewBox="0 0 100 100" fill="none" id="youtube" xmlns="http://www.w3.org/2000/svg">
<g clip-path="url(#jclip0_108_79)">
<path d="M43.0659 41.9342L56.9343 50.0197L43.0659 58.0658V41.9342Z" fill="currentColor"/>
<path d="M92.1053 0H7.89474C5.80092 0 3.79287 0.831764 2.31231 2.31231C0.831764 3.79287 0 5.80092 0 7.89474L0 92.1053C0 94.1991 0.831764 96.2071 2.31231 97.6877C3.79287 99.1682 5.80092 100 7.89474 100H92.1053C94.1991 100 96.2071 99.1682 97.6877 97.6877C99.1682 96.2071 100 94.1991 100 92.1053V7.89474C100 5.80092 99.1682 3.79287 97.6877 2.31231C96.2071 0.831764 94.1991 0 92.1053 0ZM76.3158 58.8487C76.3167 60.1564 76.0598 61.4515 75.56 62.6599C75.0601 63.8683 74.3271 64.9664 73.4027 65.8914C72.4783 66.8164 71.3807 67.5502 70.1726 68.0509C68.9645 68.5515 67.6696 68.8092 66.3618 68.8092H33.6382C32.3304 68.8092 31.0355 68.5515 29.8274 68.0509C28.6193 67.5502 27.5217 66.8164 26.5973 65.8914C25.6729 64.9664 24.9399 63.8683 24.44 62.6599C23.9402 61.4515 23.6833 60.1564 23.6842 58.8487V41.1513C23.6833 39.8436 23.9402 38.5485 24.44 37.3401C24.9399 36.1317 25.6729 35.0336 26.5973 34.1086C27.5217 33.1836 28.6193 32.4498 29.8274 31.9491C31.0355 31.4485 32.3304 31.1908 33.6382 31.1908H66.3618C67.6696 31.1908 68.9645 31.4485 70.1726 31.9491C71.3807 32.4498 72.4783 33.1836 73.4027 34.1086C74.3271 35.0336 75.0601 36.1317 75.56 37.3401C76.0598 38.5485 76.3167 39.8436 76.3158 41.1513V58.8487Z" fill="currentColor"/>
</g>
<defs>
<clipPath id="jclip0_108_79">
<rect width="100" height="100" fill="currentColor"/>
</clipPath>
</defs>
</symbol></svg>