<svg width="260" height="260" viewBox="0 0 260 260" fill="none" xmlns="http://www.w3.org/2000/svg">
<rect width="260" height="260" fill="url(#paint0_linear_155_42)"/>
<path d="M237.814 107.171V103H226.19H222V128.437H225.816H237.807V124.266H226.19V117.182H236.497V113.013H226.19V107.171H237.814Z" fill="black"/>
<path d="M216.188 103H212V128.436H216.188V103Z" fill="black"/>
<path d="M205.077 126.231C204.412 126.248 203.754 126.098 203.163 125.796C202.582 125.469 202.067 125.037 201.645 124.522C201.122 123.892 200.666 123.211 200.282 122.488C199.876 121.744 199.422 120.862 198.898 119.799C198.633 119.274 198.344 118.712 197.994 118.041C197.777 117.628 197.544 117.227 197.309 116.849L197.12 116.542L197.364 116.273C197.612 116.003 197.858 115.717 198.1 115.42C198.483 114.941 198.869 114.448 199.227 113.953C200.401 112.291 201.348 110.481 202.043 108.571C202.678 106.849 203.01 105.032 203.026 103.199V103H198.773V103.199C198.752 104.595 198.496 105.978 198.015 107.289C197.474 108.797 196.72 110.22 195.776 111.517C195.502 111.871 195.248 112.201 194.996 112.515L194.948 112.579C194.893 112.644 194.842 112.711 194.794 112.779L194.487 113.143L194.116 112.837C194.033 112.766 193.945 112.699 193.862 112.635C193.546 112.392 193.218 112.165 192.879 111.955C192.595 111.767 192.296 111.603 191.986 111.462C190.726 110.823 189.924 110.739 189.924 110.739V103.003H185.751V110.57C185.751 110.57 185.642 110.597 185.458 110.658C185.411 110.671 185.364 110.687 185.319 110.705L185.196 110.751C185.002 110.826 184.813 110.915 184.63 111.016L184.476 111.106C184.426 111.139 184.37 111.168 184.323 111.203C183.671 111.636 183.127 112.209 182.729 112.881C182.331 113.552 182.091 114.305 182.026 115.082C182.009 115.258 182 115.434 182 115.613C182 115.748 182 115.879 182.015 116.005C182.018 116.086 182.026 116.168 182.038 116.248C182.12 117.089 182.407 117.897 182.875 118.602C183.343 119.307 183.977 119.887 184.722 120.291C184.738 120.296 184.753 120.303 184.767 120.312C184.841 120.348 184.921 120.383 184.99 120.415C185.141 120.482 185.295 120.541 185.452 120.593L185.501 120.608C185.552 120.625 185.601 120.637 185.655 120.652C185.708 120.668 185.716 120.669 185.748 120.675V128.44H189.921V120.655C190.949 120.546 191.951 120.261 192.882 119.815L192.927 119.796C192.955 119.78 192.984 119.765 193.015 119.752C193.308 119.604 193.593 119.44 193.868 119.26L194.107 119.706C194.21 119.896 194.31 120.084 194.414 120.271C194.649 120.73 194.874 121.197 195.088 121.672L195.1 121.701C195.583 122.664 196.106 123.661 196.638 124.653C197.186 125.67 197.854 126.618 198.629 127.475C199.408 128.332 200.33 129.047 201.354 129.59C202.405 130.148 203.662 130.429 205.077 130.429H205.438V126.231H205.077ZM191.981 116.111C191.766 116.225 191.52 116.348 191.224 116.473C190.824 116.646 190.418 116.799 190.006 116.933C189.602 117.062 189.191 117.168 188.775 117.251C188.412 117.326 188.043 117.366 187.673 117.372C187.625 117.372 187.47 117.372 187.422 117.372C186.574 117.372 185.884 116.642 185.875 115.737V115.717C185.875 115.641 185.881 115.566 185.891 115.49C185.894 115.455 185.899 115.419 185.907 115.385C185.94 115.174 186.018 114.972 186.136 114.794C186.165 114.749 186.198 114.703 186.23 114.662C186.261 114.618 186.297 114.578 186.336 114.541C186.408 114.46 186.49 114.388 186.581 114.328C186.803 114.173 187.066 114.083 187.337 114.071C187.385 114.071 187.491 114.071 187.514 114.071C188.39 114.088 189.254 114.286 190.049 114.653C190.752 114.941 191.411 115.326 192.006 115.797C192.082 115.858 192.159 115.922 192.229 115.987C192.149 116.017 192.069 116.062 191.981 116.111Z" fill="black"/>
<path d="M174.408 110.785C173.789 109.289 172.9 107.92 171.785 106.744C170.677 105.588 169.353 104.656 167.889 104.001C166.402 103.341 164.793 103 163.165 103C161.538 103 159.928 103.341 158.442 104.001C156.985 104.654 155.671 105.584 154.575 106.741C153.464 107.92 152.578 109.29 151.96 110.785C151.316 112.339 150.99 114.004 151 115.685C150.995 117.365 151.321 119.03 151.96 120.585C152.574 122.091 153.46 123.473 154.575 124.661C155.675 125.82 156.99 126.756 158.448 127.417C159.93 128.087 161.539 128.434 163.167 128.434C164.795 128.434 166.404 128.087 167.886 127.417C169.348 126.753 170.669 125.818 171.779 124.661C172.899 123.475 173.788 122.093 174.401 120.585C175.04 119.03 175.367 117.365 175.361 115.685C175.374 114.005 175.049 112.339 174.408 110.785ZM170.467 118.991C170.077 119.985 169.508 120.899 168.787 121.689C168.082 122.461 167.232 123.088 166.285 123.534C165.316 123.984 164.26 124.217 163.191 124.217C162.123 124.217 161.067 123.984 160.098 123.534C159.149 123.088 158.298 122.461 157.591 121.689C156.096 120.046 155.279 117.903 155.302 115.686C155.297 114.551 155.506 113.425 155.918 112.367C156.306 111.367 156.875 110.446 157.597 109.65C158.302 108.876 159.152 108.247 160.098 107.796C161.067 107.348 162.123 107.116 163.191 107.116C164.26 107.116 165.316 107.348 166.285 107.796C167.232 108.244 168.082 108.872 168.787 109.644C169.511 110.439 170.081 111.36 170.47 112.361C170.882 113.419 171.091 114.545 171.085 115.68C171.092 116.813 170.882 117.936 170.467 118.991Z" fill="black"/>
<path d="M143.394 110.785C142.778 109.29 141.891 107.92 140.779 106.744C139.673 105.588 138.352 104.657 136.889 104.001C135.403 103.341 133.793 103 132.165 103C130.538 103 128.928 103.341 127.442 104.001C125.982 104.653 124.666 105.584 123.567 106.741C122.459 107.92 121.576 109.29 120.962 110.785C120.317 112.338 119.99 114.004 120 115.685C119.995 117.365 120.322 119.03 120.962 120.585C121.572 122.091 122.455 123.473 123.567 124.661C124.667 125.82 125.983 126.756 127.44 127.417C128.922 128.087 130.531 128.434 132.159 128.434C133.787 128.434 135.396 128.087 136.878 127.417C138.34 126.754 139.662 125.818 140.771 124.661C141.888 123.475 142.775 122.093 143.386 120.585C144.025 119.03 144.351 117.365 144.346 115.685C144.359 114.005 144.035 112.339 143.394 110.785ZM139.453 118.991C139.065 119.984 138.498 120.899 137.78 121.689C137.074 122.461 136.223 123.088 135.275 123.534C134.307 123.984 133.251 124.217 132.182 124.217C131.113 124.217 130.058 123.984 129.089 123.534C128.14 123.088 127.288 122.461 126.582 121.689C125.092 120.044 124.275 117.902 124.295 115.686C124.289 114.551 124.498 113.425 124.91 112.367C125.297 111.366 125.866 110.445 126.588 109.65C127.292 108.877 128.139 108.247 129.084 107.796C130.054 107.348 131.109 107.116 132.178 107.116C133.246 107.116 134.302 107.348 135.271 107.796C136.22 108.245 137.073 108.875 137.78 109.65C138.502 110.446 139.072 111.366 139.461 112.367C139.873 113.425 140.081 114.551 140.076 115.686C140.08 116.817 139.869 117.939 139.453 118.991Z" fill="black"/>
<path d="M113.731 123.519C112.535 124.99 111.053 126.206 109.374 127.093C107.707 127.969 105.852 128.432 103.967 128.443C102.352 128.453 100.756 128.105 99.2926 127.427C97.8534 126.761 96.5571 125.826 95.4749 124.67C94.3784 123.489 93.513 122.113 92.9231 120.616C92.3029 119.046 91.9896 117.372 92.0003 115.685C91.9899 114.005 92.3151 112.339 92.957 110.785C93.577 109.291 94.4628 107.921 95.5718 106.741C96.6672 105.584 97.9806 104.653 99.4371 104.002C100.922 103.335 102.533 102.993 104.162 103C105.682 102.995 107.187 103.288 108.592 103.864C109.843 104.377 111.09 105.214 112.31 106.352L109.873 109.283C108.967 108.517 108.085 107.984 107.248 107.686C106.255 107.33 105.207 107.15 104.152 107.153C103.075 107.149 102.011 107.381 101.035 107.833C100.082 108.274 99.2232 108.894 98.505 109.658C97.775 110.445 97.201 111.363 96.8131 112.362C96.3997 113.42 96.191 114.547 96.1978 115.682C96.1893 116.812 96.3981 117.934 96.8131 118.986C97.2031 119.98 97.7729 120.895 98.4943 121.684C99.2075 122.461 100.069 123.09 101.028 123.533C102.003 123.985 103.067 124.217 104.144 124.212C105.435 124.206 106.708 123.91 107.868 123.346C108.915 122.848 109.975 122.053 111.029 120.975L113.731 123.519Z" fill="black"/>
<path d="M114.171 149.993C113.739 150.488 113.217 150.898 112.633 151.199C112.027 151.517 111.351 151.681 110.667 151.677C110.042 151.68 109.424 151.549 108.855 151.293C108.298 151.043 107.794 150.689 107.371 150.25C106.944 149.801 106.605 149.278 106.371 148.706C105.876 147.51 105.876 146.167 106.371 144.97C106.607 144.403 106.945 143.884 107.371 143.439C107.795 143.001 108.298 142.647 108.855 142.396C109.425 142.141 110.042 142.01 110.667 142.012C111.249 142.01 111.826 142.13 112.359 142.364C112.865 142.589 113.332 142.893 113.743 143.263L112.965 144.257C112.669 143.955 112.326 143.703 111.95 143.509C111.551 143.307 111.111 143.202 110.664 143.203C110.213 143.201 109.767 143.301 109.361 143.496C108.961 143.688 108.603 143.957 108.307 144.287C108.005 144.631 107.763 145.023 107.592 145.446C107.241 146.348 107.241 147.348 107.592 148.25C107.763 148.671 108.005 149.059 108.307 149.398C108.604 149.725 108.962 149.989 109.361 150.178C109.769 150.368 110.214 150.465 110.664 150.463C111.177 150.465 111.682 150.335 112.13 150.084C112.563 149.84 112.941 149.51 113.242 149.115L114.171 149.993Z" fill="black"/>
<path d="M133.682 144.958C133.443 144.39 133.101 143.871 132.673 143.427C132.249 142.988 131.745 142.634 131.187 142.384C130.616 142.131 129.998 142 129.373 142C128.748 142 128.13 142.131 127.559 142.384C126.999 142.634 126.493 142.988 126.067 143.427C125.637 143.87 125.295 144.389 125.058 144.958C124.569 146.156 124.569 147.497 125.058 148.696C125.292 149.264 125.631 149.783 126.057 150.227C126.482 150.666 126.988 151.02 127.546 151.27C128.116 151.524 128.734 151.656 129.358 151.656C129.983 151.656 130.6 151.524 131.17 151.27C131.73 151.019 132.237 150.665 132.665 150.227C133.097 149.784 133.441 149.265 133.68 148.696C133.927 148.103 134.055 147.468 134.055 146.827C134.055 146.186 133.928 145.55 133.682 144.958ZM132.439 148.224C132.277 148.647 132.036 149.035 131.73 149.369C131.432 149.692 131.073 149.952 130.673 150.135C130.262 150.317 129.816 150.412 129.366 150.412C128.915 150.412 128.47 150.317 128.058 150.135C127.659 149.952 127.3 149.692 127.002 149.369C126.696 149.034 126.453 148.646 126.287 148.224C125.93 147.326 125.93 146.327 126.287 145.43C126.454 145.011 126.696 144.625 127.002 144.292C127.3 143.97 127.659 143.71 128.058 143.526C128.47 143.344 128.915 143.25 129.366 143.25C129.816 143.25 130.262 143.344 130.673 143.526C131.073 143.71 131.432 143.97 131.73 144.292C132.035 144.624 132.275 145.01 132.439 145.43C132.612 145.875 132.699 146.349 132.696 146.826C132.699 147.306 132.611 147.781 132.438 148.229L132.439 148.224Z" fill="black"/>
<path d="M151.461 142.128V148.222C151.464 148.684 151.372 149.142 151.191 149.567C151.016 149.975 150.766 150.347 150.452 150.663C150.14 150.978 149.769 151.23 149.36 151.404C148.936 151.584 148.48 151.677 148.018 151.677C147.557 151.677 147.101 151.584 146.676 151.404C146.267 151.23 145.897 150.978 145.584 150.663C145.272 150.346 145.022 149.974 144.846 149.567C144.665 149.142 144.573 148.684 144.575 148.222V142.128H145.906V148.222C145.905 148.507 145.961 148.789 146.07 149.052C146.178 149.311 146.33 149.549 146.521 149.755C146.713 149.959 146.943 150.124 147.198 150.24C147.458 150.358 147.741 150.419 148.027 150.417C148.31 150.418 148.591 150.358 148.848 150.24C149.1 150.122 149.326 149.958 149.516 149.755C149.709 149.551 149.861 149.312 149.966 149.052C150.076 148.789 150.132 148.507 150.131 148.222V142.128H151.461Z" fill="black"/>
<path d="M168.498 142.128V143.304H165.9V151.542H164.566V143.304H161.985V142.128H168.498Z" fill="black"/>
<path d="M185.903 142.128V148.222C185.906 148.684 185.814 149.142 185.632 149.567C185.455 149.975 185.204 150.346 184.891 150.663C184.58 150.979 184.21 151.231 183.802 151.404C183.378 151.584 182.921 151.677 182.46 151.677C181.999 151.677 181.542 151.584 181.118 151.404C180.709 151.23 180.338 150.978 180.026 150.663C179.713 150.347 179.463 149.975 179.287 149.567C179.105 149.142 179.012 148.684 179.014 148.222V142.128H180.347V148.222C180.347 148.507 180.402 148.789 180.512 149.052C180.617 149.312 180.769 149.55 180.959 149.755C181.152 149.958 181.382 150.123 181.636 150.24C181.897 150.358 182.179 150.418 182.465 150.417C182.749 150.419 183.029 150.359 183.287 150.24C183.54 150.123 183.767 149.959 183.957 149.755C184.148 149.549 184.301 149.311 184.408 149.052C184.517 148.789 184.573 148.507 184.573 148.222V142.128H185.903Z" fill="black"/>
<path d="M200.957 147.342L201.012 147.325C201.291 147.247 201.555 147.125 201.795 146.964C202.028 146.805 202.236 146.611 202.41 146.39C202.584 146.167 202.721 145.918 202.816 145.652C202.914 145.371 202.963 145.076 202.961 144.779C202.964 144.423 202.891 144.071 202.749 143.745C202.612 143.432 202.416 143.147 202.172 142.906C201.922 142.666 201.631 142.474 201.312 142.338C200.978 142.2 200.62 142.129 200.258 142.13H196.424V151.542H197.754V147.445H199.485L199.494 147.46L202.484 151.542H204.144L200.957 147.342ZM200.258 146.212L197.754 146.226V143.294H200.258C200.449 143.293 200.638 143.332 200.812 143.408C200.981 143.485 201.134 143.593 201.263 143.727C201.387 143.862 201.488 144.018 201.56 144.186C201.634 144.365 201.671 144.557 201.669 144.75C201.671 144.946 201.633 145.14 201.56 145.321C201.487 145.492 201.383 145.648 201.252 145.78C201.125 145.911 200.973 146.015 200.804 146.087C200.634 146.167 200.447 146.21 200.258 146.212Z" fill="black"/>
<path d="M214.822 143.304V145.97H218.762V147.189H214.822V150.323H219.25V151.542H213.491V142.128H219.25V143.304H214.822Z" fill="black"/>
<path d="M87.2692 128.319C87.267 128.272 87.2546 128.227 87.2329 128.186C87.2112 128.145 87.1808 128.109 87.1437 128.081C87.1066 128.053 87.0638 128.033 87.0183 128.023C86.9727 128.013 86.9256 128.013 86.8801 128.023C85.6078 128.274 84.2932 128.21 83.0516 127.836C81.688 127.424 80.4601 126.656 79.4955 125.612C78.5309 124.568 77.8649 123.285 77.5667 121.898C77.4663 121.431 77.208 121.013 76.8351 120.713C76.4622 120.413 75.9972 120.25 75.5179 120.25H75.4763C73.4997 120.251 71.5579 119.733 69.847 118.748C68.1362 117.762 66.717 116.344 65.7328 114.638C64.7487 112.931 64.2345 110.996 64.2422 109.029C64.25 107.061 64.7793 105.13 65.7768 103.431C66.4405 102.309 67.2933 101.31 68.2979 100.476C68.3386 100.441 68.3699 100.397 68.3888 100.347C68.4078 100.297 68.4138 100.243 68.4063 100.19C68.3988 100.137 68.378 100.087 68.3459 100.044C68.3138 100.001 68.2713 99.9668 68.2225 99.9446C67.0226 99.3946 65.7898 98.919 64.531 98.5205C64.4722 98.5025 64.4096 98.5011 64.3501 98.5165C64.2906 98.5319 64.2366 98.5635 64.1941 98.6078C63.2269 99.6434 62.4061 100.806 61.7546 102.062C60.6173 104.271 60.0349 106.722 60.0573 109.204C60.0797 111.687 60.7063 114.126 61.8833 116.315C63.0604 118.503 64.7528 120.375 66.8156 121.769C68.8784 123.164 71.2501 124.04 73.7275 124.322C73.785 124.329 73.8395 124.352 73.8851 124.387C73.9306 124.423 73.9655 124.47 73.9859 124.524C74.8546 126.821 76.406 128.8 78.4332 130.197C80.4605 131.594 82.8672 132.342 85.3327 132.343C85.8624 132.342 86.3916 132.309 86.917 132.242C86.9902 132.232 87.0578 132.197 87.1087 132.144C87.1595 132.09 87.1907 132.021 87.1969 131.948C87.2595 131.139 87.2913 130.323 87.2923 129.498C87.2923 129.103 87.2846 128.71 87.2692 128.319Z" fill="black"/>
<path d="M76.6713 134.021C74.498 144.524 64.9138 152.367 53.6162 151.861C41.8879 151.338 32.4592 141.738 32.1669 130.053C31.8593 117.457 42.0633 107.114 54.6468 107.114C55.0882 107.114 55.5235 107.128 55.9588 107.152C55.9173 107.585 55.8881 108.025 55.8742 108.467C55.464 108.441 55.0467 108.428 54.6222 108.429C43.6676 108.443 34.4126 116.92 33.5497 127.792C32.5638 140.181 42.4109 150.571 54.6468 150.571C65.0461 150.571 73.7197 143.06 75.4824 133.203C75.8654 133.494 76.2622 133.768 76.6713 134.021Z" fill="black"/>
<path d="M86.5171 136.469C86.5188 136.469 86.5205 136.47 86.5221 136.47C86.5236 136.471 86.525 136.472 86.526 136.474C86.5271 136.475 86.5278 136.477 86.5281 136.478C86.5284 136.48 86.5283 136.482 86.5279 136.483C83.3132 151.061 70.2375 162 54.6469 162C36.6446 162 22 147.419 22 129.498C22 111.576 36.6446 97 54.6469 97C56.3533 96.9985 58.0572 97.1305 59.7428 97.3951C59.7446 97.3953 59.7464 97.3959 59.7479 97.397C59.7495 97.3981 59.7507 97.3996 59.7515 97.4013C59.7522 97.403 59.7526 97.4049 59.7524 97.4067C59.7522 97.4086 59.7515 97.4104 59.7505 97.4119C58.8466 98.617 58.0858 99.9222 57.4832 101.301C57.4816 101.302 57.4798 101.303 57.4779 101.303C57.476 101.303 57.4741 101.302 57.4725 101.301C56.5404 101.212 55.599 101.163 54.6469 101.163C39.8424 101.17 27.645 112.478 26.3068 126.873C24.6579 144.688 40.1085 159.709 57.9585 157.637C69.8299 156.259 79.4924 147.576 82.2857 136.234C82.2864 136.231 82.288 136.229 82.2902 136.227C82.2925 136.225 82.2952 136.224 82.298 136.224C83.2982 136.416 84.3143 136.512 85.3327 136.512C85.7311 136.514 86.1249 136.506 86.5171 136.469Z" fill="black"/>
<defs>
<linearGradient id="paint0_linear_155_42" x1="0" y1="0" x2="260" y2="260" gradientUnits="userSpaceOnUse">
<stop stop-color="#E093A0"/>
<stop offset="1" stop-color="#ECDDCE"/>
</linearGradient>
</defs>
</svg>
