<?xml version="1.0" standalone="no"?>
<!DOCTYPE svg PUBLIC "-//W3C//DTD SVG 20010904//EN"
 "http://www.w3.org/TR/2001/REC-SVG-20010904/DTD/svg10.dtd">
<svg version="1.0" xmlns="http://www.w3.org/2000/svg"
 width="700.000000pt" height="700.000000pt" viewBox="0 0 700.000000 700.000000"
 preserveAspectRatio="xMidYMid meet">
<metadata>
Created by potrace 1.14, written by Peter Selinger 2001-2017
</metadata>
<g transform="translate(0.000000,700.000000) scale(0.100000,-0.100000)"
fill="#000000" stroke="none">
<path d="M1360 4383 c-367 -55 -647 -303 -743 -658 -30 -110 -29 -315 1 -426
93 -344 368 -593 716 -650 103 -16 281 -7 371 20 290 86 512 299 604 580 12
36 21 68 21 73 0 4 -26 8 -57 8 l-58 0 -28 -78 c-109 -310 -443 -526 -770
-497 -614 53 -921 749 -543 1232 136 174 359 283 581 284 l90 0 31 54 32 53
-37 6 c-38 6 -169 6 -211 -1z"/>
<path d="M1705 4318 c-76 -89 -106 -249 -71 -370 38 -131 145 -237 282 -279
69 -22 78 -28 95 -62 50 -97 151 -159 267 -165 l72 -4 0 56 0 56 -47 0 c-88 1
-180 63 -204 139 -17 54 -35 69 -92 76 -109 15 -195 74 -245 170 -52 99 -28
257 49 331 16 15 29 31 29 36 0 4 -15 14 -33 22 -70 29 -73 29 -102 -6z"/>
<path d="M2713 4212 c-157 -56 -241 -183 -231 -350 6 -93 30 -153 88 -216 122
-132 317 -137 454 -11 l40 36 -35 35 -35 35 -53 -35 c-118 -79 -250 -54 -318
61 -52 88 -34 224 39 289 66 61 170 73 253 29 52 -28 48 -30 92 33 15 21 14
24 -3 38 -78 63 -204 87 -291 56z"/>
<path d="M3478 4217 c-90 -26 -171 -96 -215 -187 -24 -47 -27 -67 -27 -145 0
-110 21 -162 94 -239 69 -73 132 -101 230 -100 62 0 86 4 132 27 170 83 243
300 158 468 -72 139 -232 215 -372 176z m202 -145 c130 -103 113 -319 -32
-393 -103 -53 -236 3 -285 118 -19 46 -16 140 6 188 57 123 211 166 311 87z"/>
<path d="M4306 4214 c-147 -47 -237 -171 -237 -328 0 -103 40 -196 112 -263
87 -80 233 -102 340 -52 72 34 134 96 168 168 22 47 26 70 26 146 0 76 -4 98
-26 146 -69 147 -240 229 -383 183z m202 -136 c57 -38 94 -115 94 -193 -1 -72
-22 -123 -74 -172 -41 -39 -76 -53 -135 -53 -136 0 -235 135 -204 276 35 155
193 225 319 142z"/>
<path d="M5000 4128 l0 -103 -30 -17 c-89 -51 -92 -188 -5 -239 l35 -21 0
-104 0 -104 55 0 55 0 0 103 0 104 43 12 c23 7 47 17 54 23 8 6 24 -16 57 -80
26 -49 62 -107 81 -130 40 -46 107 -82 153 -82 32 0 32 0 32 54 0 51 -1 54
-29 59 -46 9 -77 45 -136 155 l-55 102 39 53 c21 28 51 76 66 106 28 56 60
185 50 202 -4 5 -31 9 -61 9 -53 0 -54 -1 -54 -28 0 -60 -61 -195 -103 -231
-14 -11 -21 -10 -46 8 -17 12 -44 27 -61 32 l-30 11 0 104 0 104 -55 0 -55 0
0 -102z m116 -217 c59 -27 60 -37 7 -55 -77 -26 -113 -17 -113 29 0 47 39 56
106 26z"/>
<path d="M5710 3885 l0 -345 55 0 55 0 0 345 0 345 -55 0 -55 0 0 -345z"/>
<path d="M5980 3885 l0 -345 210 0 210 0 0 55 0 55 -155 0 -155 0 0 95 0 94
138 3 137 3 3 58 3 57 -141 0 -140 0 0 75 0 75 155 0 155 0 0 60 0 60 -210 0
-210 0 0 -345z"/>
<path d="M1373 4109 c-233 -40 -427 -217 -489 -447 -8 -31 -15 -97 -15 -147 0
-172 51 -295 176 -421 92 -93 183 -144 300 -169 269 -56 545 76 666 319 41 84
56 155 33 163 -7 2 -20 -24 -33 -64 -55 -182 -218 -334 -403 -378 -196 -46
-391 8 -533 149 -227 224 -229 572 -5 796 36 36 93 80 127 98 73 38 196 72
265 72 42 0 49 3 46 18 -4 20 -55 25 -135 11z"/>
<path d="M2940 3169 c-14 -6 -35 -20 -47 -31 -79 -74 -27 -218 78 -218 41 0
99 23 99 40 0 18 -20 21 -42 6 -54 -38 -125 -2 -135 70 -4 34 -1 45 23 73 28
34 33 35 118 19 35 -6 29 22 -8 37 -40 17 -51 18 -86 4z"/>
<path d="M3433 3165 c-41 -18 -73 -69 -73 -118 0 -135 173 -176 235 -57 31 61
6 139 -56 172 -40 21 -63 22 -106 3z m98 -38 c47 -36 52 -105 10 -148 -46 -46
-107 -33 -136 28 -30 63 13 133 80 133 16 0 37 -6 46 -13z"/>
<path d="M3892 3069 c3 -96 4 -102 31 -125 18 -15 41 -24 62 -24 21 0 44 9 62
24 27 23 28 29 31 125 4 97 3 101 -17 101 -20 0 -21 -5 -21 -93 0 -78 -3 -97
-18 -110 -23 -21 -41 -21 -70 -1 -20 14 -22 23 -22 110 0 89 -1 94 -21 94 -20
0 -21 -4 -17 -101z"/>
<path d="M4360 3155 c0 -10 11 -15 35 -15 l35 0 0 -110 c0 -103 1 -110 20
-110 19 0 20 7 20 110 l0 110 35 0 c24 0 35 5 35 15 0 12 -17 15 -90 15 -73 0
-90 -3 -90 -15z"/>
<path d="M4820 3076 c0 -87 2 -97 26 -125 20 -24 34 -31 61 -31 76 0 103 44
103 170 0 73 -2 80 -20 80 -19 0 -20 -7 -20 -90 0 -77 -3 -93 -20 -110 -25
-25 -52 -26 -73 -2 -13 15 -17 39 -17 110 0 85 -1 92 -20 92 -19 0 -20 -7 -20
-94z"/>
<path d="M5290 3045 c0 -104 2 -125 15 -125 12 0 15 13 15 55 0 52 1 55 25 55
18 0 35 -14 66 -55 24 -32 49 -55 60 -55 26 0 24 5 -16 54 -19 24 -35 46 -35
50 0 3 9 15 20 26 26 26 26 81 2 103 -13 12 -37 17 -85 17 l-67 0 0 -125z
m130 80 c28 -34 -14 -71 -71 -63 -20 2 -25 10 -27 41 l-3 37 44 0 c27 0 49 -6
57 -15z"/>
<path d="M5750 3045 l0 -125 75 0 c59 0 75 3 75 15 0 10 -15 15 -57 17 l-58 3
0 40 0 40 53 3 c37 2 52 7 52 18 0 10 -14 14 -55 14 l-55 0 0 35 0 35 60 0
c47 0 60 3 60 15 0 12 -15 15 -75 15 l-75 0 0 -125z"/>
</g>
</svg>
