<svg width="512" height="512" viewBox="0 0 512 512" fill="none" xmlns="http://www.w3.org/2000/svg">
<g clip-path="url(#clip0_115_2)">
<path d="M471.652 162.473L457.765 154.947C456.996 154.531 456.578 153.649 456.725 152.755C457.672 147.026 458.152 141.163 458.152 135.332C458.152 129.501 457.672 123.639 456.725 117.909C456.578 117.015 456.995 116.133 457.764 115.717L471.651 108.191C475.654 106.022 478.572 102.425 479.868 98.062C481.164 93.699 480.683 89.092 478.514 85.092L463.083 56.613C458.605 48.353 448.24 45.276 439.983 49.751L426.082 57.284C425.312 57.698 424.359 57.578 423.709 56.983C423.039 56.368 422.36 55.76 421.674 55.161C418.557 52.443 413.825 52.768 411.108 55.887C408.39 59.005 408.715 63.735 411.833 66.453C412.422 66.966 413.003 67.486 413.579 68.015C418.938 72.932 426.828 73.914 433.216 70.453L447.117 62.92C448.118 62.378 449.371 62.75 449.915 63.75L465.346 92.229C465.682 92.849 465.621 93.424 465.51 93.798C465.399 94.171 465.136 94.686 464.515 95.024L450.626 102.551C444.248 106.009 440.76 113.161 441.948 120.35C442.761 125.276 443.174 130.317 443.174 135.333C443.174 140.349 442.762 145.39 441.948 150.316C440.76 157.504 444.248 164.657 450.627 168.115L464.515 175.641C465.136 175.978 465.398 176.494 465.51 176.868C465.621 177.241 465.682 177.817 465.346 178.438L449.915 206.914C449.579 207.535 449.062 207.798 448.688 207.909C448.315 208.021 447.739 208.081 447.119 207.745L433.215 200.211C426.828 196.751 418.936 197.731 413.578 202.65C404.274 211.192 393.531 217.603 381.649 221.706C374.723 224.098 370.069 230.584 370.069 237.847V253.628C370.069 254.765 369.145 255.69 368.008 255.69H335.617C334.48 255.69 333.556 254.765 333.556 253.628V237.847C333.556 230.585 328.902 224.098 321.976 221.706C310.094 217.603 299.351 211.192 290.046 202.65C284.687 197.734 276.796 196.752 270.409 200.212L256.507 207.745C255.504 208.286 254.252 207.913 253.71 206.914L238.279 178.436C237.943 177.816 238.004 177.24 238.115 176.867C238.226 176.494 238.489 175.977 239.109 175.64L252.997 168.114C259.376 164.657 262.864 157.504 261.676 150.315C260.863 145.389 260.45 140.348 260.45 135.332C260.45 130.316 260.862 125.275 261.676 120.349C262.864 113.159 259.376 106.007 252.997 102.55L239.109 95.023C238.488 94.687 238.226 94.171 238.115 93.797C238.004 93.423 237.942 92.848 238.279 92.227L253.71 63.75C254.252 62.749 255.504 62.376 256.507 62.918L270.41 70.453C276.797 73.912 284.688 72.932 290.047 68.014C299.351 59.472 310.094 53.061 321.976 48.958C328.902 46.566 333.556 40.08 333.556 32.818V17.038C333.556 15.901 334.48 14.977 335.617 14.977H368.008C369.145 14.977 370.069 15.901 370.069 17.038V32.82C370.069 40.082 374.723 46.569 381.654 48.962C382.668 49.311 383.673 49.679 384.672 50.064C388.526 51.555 392.865 49.634 394.354 45.776C395.844 41.919 393.924 37.582 390.066 36.093C388.898 35.642 387.709 35.207 386.538 34.804C385.646 34.496 385.046 33.698 385.046 32.82V17.038C385.048 7.644 377.404 0 368.009 0H335.618C326.223 0 318.58 7.644 318.58 17.038V32.82C318.58 33.698 317.98 34.496 317.088 34.804C315.101 35.49 313.146 36.238 311.215 37.034C281.784 13.853 244.679 0 204.394 0C109.015 0 31.4189 77.596 31.4189 172.974C31.4179 211.963 45.1039 249.259 70.9979 280.83C72.7309 282.941 74.5969 285.13 76.7059 287.522C79.4409 290.623 84.1729 290.923 87.2759 288.185C90.3779 285.45 90.6749 280.718 87.9389 277.615C85.9499 275.36 84.1959 273.303 82.5779 271.332C58.9069 242.471 46.3949 208.459 46.3959 172.974C46.3959 85.854 117.274 14.977 204.394 14.977C238.675 14.977 270.427 25.967 296.347 44.59C290.523 48.157 285.033 52.29 279.921 56.983C279.27 57.583 278.315 57.703 277.546 57.287L263.644 49.753C255.383 45.276 245.021 48.355 240.545 56.616L225.113 85.093C222.945 89.095 222.464 93.702 223.759 98.065C225.056 102.428 227.973 106.024 231.975 108.192L245.863 115.719C246.632 116.135 247.049 117.017 246.902 117.911C245.955 123.64 245.475 129.503 245.475 135.334C245.475 141.165 245.955 147.027 246.902 152.757C247.049 153.651 246.632 154.533 245.863 154.949L231.974 162.475C223.713 166.953 220.635 177.316 225.112 185.574L240.544 214.052C245.023 222.313 255.386 225.391 263.643 220.914L277.544 213.382C278.313 212.966 279.268 213.087 279.919 213.685C290.747 223.624 303.252 231.086 317.088 235.863C317.98 236.171 318.58 236.969 318.58 237.847V253.628C318.58 260.592 322.784 266.586 328.784 269.225C327.4 271.011 325.988 272.78 324.524 274.516C318.599 281.539 311.986 288.333 304.984 295.525C283.973 317.11 262.291 339.385 256.169 370.85H152.576C147.287 345.132 129.814 323.129 111.481 303.1C108.688 300.047 103.95 299.839 100.901 302.632C97.8499 305.425 97.6409 310.162 100.433 313.212C117.934 332.333 134.545 353.192 138.377 376.455C134.652 380.064 132.324 385.107 132.324 390.691V405.041C132.324 409.567 133.864 413.731 136.425 417.073C133.864 420.415 132.324 424.579 132.324 429.105V443.455C132.324 452.459 138.359 460.069 146.592 462.484C149.907 490.33 173.652 512 202.377 512H206.409C209.965 512 213.523 511.666 216.983 511.005C221.045 510.23 223.711 506.308 222.936 502.246C222.161 498.183 218.231 495.515 214.177 496.293C211.64 496.777 209.027 497.022 206.41 497.022H202.378C182.207 497.022 165.373 482.457 161.841 463.292H246.957C245.791 469.691 243.124 475.695 239.075 480.946C236.549 484.221 237.158 488.923 240.433 491.449C243.707 493.973 248.41 493.368 250.935 490.091C257.199 481.968 261.034 472.526 262.211 462.478C270.436 460.057 276.461 452.451 276.461 443.453V429.103C276.461 424.577 274.921 420.413 272.36 417.071C274.921 413.729 276.461 409.565 276.461 405.039V390.689C276.461 385.097 274.126 380.048 270.391 376.438C274.922 347.875 295.649 326.583 315.714 305.97C322.59 298.907 329.7 291.602 335.968 284.171C339.644 279.813 343.086 275.303 346.298 270.665H368.007C377.402 270.665 385.045 263.021 385.045 253.626V237.845C385.045 236.966 385.645 236.169 386.537 235.861C400.372 231.084 412.878 223.622 423.705 213.683C424.357 213.084 425.311 212.962 426.079 213.379L439.981 220.912C448.239 225.386 458.601 222.311 463.081 214.049L478.512 185.573C480.681 181.571 481.161 176.964 479.866 172.602C478.572 168.238 475.655 164.641 471.652 162.473ZM261.486 443.453C261.486 446.135 259.304 448.316 256.622 448.316H152.165C149.484 448.316 147.301 446.135 147.301 443.453V429.103C147.301 427.194 148.417 425.555 150.021 424.759C150.726 424.835 151.44 424.88 152.165 424.88H256.622C257.347 424.88 258.061 424.835 258.766 424.759C260.37 425.555 261.486 427.194 261.486 429.103V443.453ZM261.486 405.039C261.486 406.948 260.37 408.587 258.766 409.383C258.061 409.307 150.727 409.307 150.022 409.383C148.418 408.587 147.302 406.948 147.302 405.039V390.689C147.302 388.008 149.484 385.826 152.166 385.826H256.623C259.304 385.826 261.487 388.007 261.487 390.689V405.039H261.486Z" fill="black"/>
<path d="M290.522 135.333C290.522 169.129 318.017 196.624 351.814 196.624C385.61 196.624 413.105 169.129 413.105 135.333C413.105 101.536 385.61 74.041 351.814 74.041C318.017 74.04 290.522 101.535 290.522 135.333ZM398.129 135.333C398.129 160.87 377.352 181.647 351.815 181.647C326.277 181.647 305.5 160.87 305.5 135.333C305.5 109.795 326.277 89.018 351.815 89.018C377.352 89.017 398.129 109.794 398.129 135.333Z" fill="black"/>
</g>
<defs>
<clipPath id="clip0_115_2">
<rect width="512" height="512" fill="white"/>
</clipPath>
</defs>
</svg>
