<svg width="512" height="512" viewBox="0 0 512 512" fill="none" xmlns="http://www.w3.org/2000/svg">
<g clip-path="url(#clip0_16_2)">
<path d="M478.407 420.816L419.812 313.027L409.656 294.488C422.834 286.805 435.609 278.312 441.456 264.246C447.746 249.101 443.307 232.398 439.014 216.242C436.45 206.586 433.793 196.601 433.793 187.758C433.793 178.922 436.446 168.937 439.014 159.285C443.307 143.129 447.746 126.426 441.456 111.273C438.043 103.078 432.016 96.0623 422.482 89.1912C419.061 86.7264 414.294 87.4959 411.824 90.9061C409.354 94.3162 410.125 99.078 413.542 101.539C420.689 106.691 425.076 111.64 427.354 117.109C431.667 127.5 428.071 141.039 424.258 155.379C421.44 165.976 418.528 176.933 418.528 187.758C418.528 198.586 421.44 209.547 424.258 220.148C428.071 234.484 431.667 248.027 427.354 258.41C422.779 269.418 410.341 276.547 397.174 284.09C387.918 289.394 378.345 294.879 371.065 302.144C363.781 309.418 358.282 318.969 352.967 328.211C345.405 341.351 338.266 353.762 327.233 358.328C316.83 362.637 303.26 359.047 288.892 355.242C278.274 352.433 267.296 349.527 256.454 349.527C245.609 349.527 234.626 352.433 224.008 355.246C209.64 359.047 196.071 362.637 185.66 358.328C174.63 353.762 167.487 341.348 159.926 328.203C154.615 318.965 149.123 309.414 141.844 302.144C135.155 295.473 126.779 290.43 117.319 285.008C117.264 284.973 117.213 284.941 117.159 284.91L115.773 284.117C102.587 276.566 90.1332 269.433 85.5539 258.414C81.2369 248.023 84.8338 234.484 88.642 220.144C91.4561 209.543 94.368 198.586 94.368 187.758C94.368 176.937 91.4561 165.98 88.642 155.383C84.8338 141.043 81.2369 127.5 85.5539 117.113C90.1254 106.105 102.56 98.9803 115.726 91.4334C124.986 86.1287 134.56 80.6405 141.844 73.3709C149.123 66.1053 154.619 56.5545 159.93 47.3162C167.491 34.1756 174.63 21.7616 185.66 17.1991C196.071 12.8905 209.64 16.4803 224.008 20.2811C234.626 23.0936 245.609 25.9959 256.454 25.9959C267.296 25.9959 278.274 23.0936 288.892 20.2811C303.26 16.4803 316.834 12.8866 327.237 17.1991C338.266 21.7616 345.405 34.1717 352.967 47.3084C358.282 56.5506 363.781 66.1014 371.065 73.3709C376.971 79.2655 384.337 83.9334 390.763 87.7225C394.392 89.8631 399.073 88.6639 401.217 85.0428C403.362 81.4178 402.157 76.7498 398.528 74.6092C392.924 71.3045 386.56 67.2889 381.855 62.5975C376.004 56.7577 371.241 48.4842 366.2 39.7225C357.699 24.9491 348.908 9.67562 333.084 3.12875C317.91 -3.15641 301.17 1.27328 284.979 5.55843C275.307 8.11703 265.303 10.7655 256.454 10.7655C247.597 10.7655 237.593 8.11703 227.918 5.55843C211.73 1.27328 194.99 -3.15641 179.812 3.12875C163.981 9.67953 155.194 24.9569 146.693 39.7303C141.656 48.492 136.896 56.7655 131.049 62.5975C125.198 68.4373 116.904 73.1912 108.125 78.2225C93.323 86.7069 78.0158 95.4803 71.4522 111.281C65.1586 126.426 69.597 143.133 73.8866 159.289C76.4541 168.941 79.1038 178.922 79.1038 187.758C79.1038 196.601 76.4502 206.586 73.8866 216.242C69.597 232.394 65.1625 249.101 71.4522 264.25C77.276 278.262 89.9727 286.75 103.104 294.406L34.4854 420.82C33.0764 423.422 33.2995 426.601 35.0608 428.98C36.822 431.355 39.8044 432.504 42.7124 431.914L143.757 411.515L181.707 507.183C182.799 509.933 185.386 511.808 188.345 511.984C188.497 511.992 188.65 512 188.802 512C191.589 512 194.168 510.48 195.511 508.015L256.454 395.918L317.386 508.015C318.724 510.48 321.307 512 324.094 512C324.247 512 324.399 511.996 324.552 511.984C327.511 511.808 330.098 509.937 331.19 507.183L369.147 411.515L470.188 431.918C473.088 432.504 476.074 431.359 477.836 428.98C479.601 426.601 479.824 423.418 478.407 420.816ZM189.887 486.414L155.601 399.98C154.243 396.551 150.615 394.59 146.994 395.32L55.6831 413.754L116.305 302.074C122.063 305.551 127.123 309 131.049 312.914C136.896 318.754 141.652 327.027 146.693 335.785C155.194 350.566 163.981 365.848 179.812 372.394C194.99 378.68 211.73 374.25 227.922 369.969C232.133 368.851 236.407 367.723 240.626 366.801L247.773 379.945L189.887 486.414ZM365.918 395.32C362.298 394.586 358.669 396.551 357.307 399.98L323.014 486.418L256.885 364.769C265.632 364.851 275.468 367.449 284.983 369.969C295.37 372.719 305.984 375.527 316.266 375.527C322.008 375.527 327.648 374.652 333.084 372.398C348.912 365.848 357.703 350.57 366.204 335.797C371.245 327.035 376.008 318.758 381.859 312.918C385.808 308.976 390.885 305.531 396.462 302.16L406.411 320.312L457.202 413.75L365.918 395.32Z" fill="black"/>
<path d="M126.176 230.801C122.255 232.344 120.329 236.77 121.875 240.68C132.403 267.328 150.482 290.07 174.157 306.453C198.396 323.223 226.854 332.086 256.45 332.086C336.188 332.086 401.057 267.34 401.057 187.762C401.057 108.18 336.188 43.4375 256.45 43.4375C176.717 43.4375 111.844 108.18 111.844 187.762C111.844 196.613 112.654 205.488 114.255 214.129C115.018 218.266 119.006 221 123.143 220.238C127.288 219.473 130.028 215.5 129.264 211.363C127.832 203.633 127.108 195.691 127.108 187.762C127.108 116.582 185.131 58.6719 256.45 58.6719C327.773 58.6719 385.793 116.582 385.793 187.762C385.793 258.941 327.773 316.852 256.45 316.852C229.977 316.852 204.529 308.926 182.857 293.934C161.672 279.273 145.495 258.93 136.079 235.094C134.533 231.18 130.098 229.262 126.176 230.801Z" fill="black"/>
<path d="M311.439 278C309.484 277.997 307.562 277.491 305.863 276.531L255.495 247.988L205.126 276.531C203.217 277.613 201.029 278.115 198.835 277.974C196.64 277.834 194.536 277.057 192.783 275.741C191.03 274.424 189.705 272.626 188.974 270.57C188.242 268.514 188.136 266.289 188.669 264.174L203.142 206.732L168.611 172.492C167.041 170.935 165.972 168.952 165.539 166.793C165.106 164.634 165.328 162.396 166.178 160.362C167.027 158.329 168.466 156.59 170.312 155.368C172.158 154.145 174.328 153.492 176.548 153.493H224.134L245.188 104.767C246.05 102.76 247.489 101.048 249.325 99.8447C251.16 98.6415 253.312 98 255.513 98C257.713 98 259.865 98.6415 261.701 99.8447C263.537 101.048 264.976 102.76 265.838 104.767L286.865 153.493H334.45C336.67 153.492 338.841 154.145 340.687 155.368C342.533 156.59 343.971 158.329 344.821 160.362C345.671 162.396 345.893 164.634 345.46 166.793C345.027 168.952 343.957 170.935 342.387 172.492L307.848 206.732L322.321 264.165C322.734 265.805 322.765 267.518 322.411 269.172C322.057 270.826 321.329 272.379 320.28 273.712C319.231 275.045 317.89 276.124 316.358 276.867C314.826 277.61 313.144 277.998 311.439 278ZM255.495 233.619C256.667 233.622 257.819 233.928 258.835 234.509L307.982 262.358L293.85 206.314C293.572 205.193 293.591 204.021 293.905 202.91C294.22 201.799 294.82 200.788 295.646 199.975L329.037 166.856H282.43C281.112 166.856 279.823 166.472 278.723 165.752C277.623 165.032 276.761 164.007 276.244 162.805L255.495 114.765L234.746 162.841C234.222 164.035 233.357 165.05 232.257 165.762C231.158 166.474 229.873 166.851 228.56 166.847H181.971L215.362 199.966C216.188 200.779 216.788 201.79 217.102 202.901C217.417 204.012 217.436 205.184 217.157 206.305L203.025 262.393L252.173 234.545C253.18 233.955 254.325 233.635 255.495 233.619Z" fill="black"/>
</g>
<defs>
<clipPath id="clip0_16_2">
<rect width="512" height="511.999" fill="white"/>
</clipPath>
</defs>
</svg>
