<svg width="512" height="512" viewBox="0 0 512 512" fill="none" xmlns="http://www.w3.org/2000/svg">
<path d="M256 496C254.899 496.005 253.808 495.779 252.8 495.336C66.4 414.296 56.096 257.992 56 256.424V88C55.9996 86.3203 56.5279 84.683 57.5101 83.3204C58.4922 81.9577 59.8784 80.9388 61.472 80.408L253.472 16.408C255.113 15.8614 256.887 15.8614 258.528 16.408L450.528 80.408C452.122 80.9388 453.508 81.9577 454.49 83.3204C455.472 84.683 456 86.3203 456 88V256C455.904 257.992 445.6 414.296 259.2 495.336C258.192 495.779 257.101 496.005 256 496ZM72 93.768V256C72.072 257.032 82.12 401.96 256 479.256C430.328 401.768 439.936 257.04 440 255.576V93.768L256 32.432L72 93.768Z" fill="black"/>
<path d="M271.752 306.864C267.752 306.864 265.288 306.728 264.8 306.696C262.851 306.577 261.013 305.749 259.632 304.368C258.252 302.987 257.424 301.149 257.304 299.2C257.136 296.448 253.552 231.24 289.976 194.832C325.816 158.992 402.536 149.72 405.792 149.344C406.99 149.206 408.203 149.34 409.341 149.737C410.48 150.134 411.513 150.782 412.366 151.635C413.218 152.487 413.867 153.521 414.264 154.659C414.66 155.798 414.794 157.011 414.656 158.208C414.28 161.464 405.008 238.208 369.168 274.024C339.272 303.928 289.968 306.864 271.752 306.864ZM397.168 166.864C375.568 170.6 325.928 181.536 301.288 206.176C276.488 230.976 273.368 273.736 273.168 290.856C290.296 290.632 333.128 287.48 357.856 262.744C382.584 238.008 393.432 188.456 397.168 166.832V166.864Z" fill="black"/>
<path d="M201.056 282.184C186.928 282.184 148.536 279.896 125.168 256.52C97.3037 228.664 90.1437 169.36 89.8477 166.848C89.7094 165.65 89.8438 164.436 90.2408 163.297C90.6379 162.158 91.2873 161.123 92.1406 160.271C92.9939 159.418 94.0289 158.77 95.1682 158.374C96.3075 157.978 97.5216 157.844 98.7197 157.984C101.224 158.272 160.52 165.44 188.392 193.304C216.832 221.744 214.048 272.424 213.912 274.56C213.793 276.508 212.966 278.345 211.587 279.725C210.207 281.106 208.371 281.935 206.424 282.056C206.04 282.08 204.12 282.184 201.056 282.184ZM107.416 175.544C110.616 192.992 118.936 227.664 136.488 245.208C154.04 262.752 184.072 265.736 197.976 266.12C197.6 252.216 194.64 222.184 177.08 204.616C159.52 187.048 124.848 178.744 107.416 175.544Z" fill="black"/>
<path d="M240 392C237.878 392 235.843 391.157 234.343 389.657C232.843 388.156 232 386.122 232 384C232 284.856 327.504 220.056 331.56 217.344C333.325 216.165 335.486 215.736 337.568 216.151C339.65 216.566 341.481 217.791 342.66 219.556C343.839 221.321 344.268 223.482 343.853 225.564C343.438 227.646 342.213 229.477 340.448 230.656C339.512 231.272 248 293.512 248 384C248 386.122 247.157 388.156 245.657 389.657C244.157 391.157 242.122 392 240 392Z" fill="black"/>
<path d="M240 392C237.966 392.004 236.008 391.234 234.522 389.846C233.036 388.458 232.134 386.557 232 384.528C224.424 270.776 156.8 231.368 156.08 230.984C154.266 229.931 152.938 228.208 152.382 226.186C151.826 224.164 152.086 222.004 153.107 220.172C154.127 218.34 155.826 216.982 157.838 216.39C159.85 215.798 162.014 216.02 163.864 217.008C166.968 218.728 239.776 260.536 247.968 383.472C248.039 384.52 247.904 385.573 247.569 386.569C247.234 387.565 246.705 388.485 246.015 389.277C245.324 390.069 244.483 390.717 243.542 391.185C242.6 391.652 241.576 391.929 240.528 392H240Z" fill="black"/>
</svg>
