<svg width="512" height="512" viewBox="0 0 512 512" fill="none" xmlns="http://www.w3.org/2000/svg">
<path d="M344.615 344.615C350.052 344.615 354.461 340.206 354.461 334.769V226.462C354.461 185.847 329.742 150.9 294.56 135.869C312.867 123.466 324.923 102.499 324.923 78.7693C324.923 40.7651 294.004 9.84619 256 9.84619C217.995 9.84619 187.077 40.7651 187.077 78.7693C187.077 102.499 199.132 123.466 217.439 135.869C182.257 150.901 157.538 185.847 157.538 226.462V334.769C157.538 340.206 161.946 344.615 167.384 344.615H188.231L206.845 493.529C207.46 498.457 211.649 502.154 216.615 502.154H295.384C300.35 502.154 304.538 498.457 305.155 493.529L323.769 344.615H344.615ZM206.769 78.7693C206.769 51.6234 228.854 29.5385 256 29.5385C283.145 29.5385 305.23 51.6234 305.23 78.7693C305.23 105.915 283.145 128 256 128C228.854 128 206.769 105.915 206.769 78.7693ZM177.23 226.462C177.23 183.028 212.566 147.692 256 147.692C299.433 147.692 334.769 183.028 334.769 226.462V324.923C318.874 324.923 201.02 324.923 177.23 324.923V226.462ZM286.692 482.462H225.307L208.076 344.615H303.923L286.692 482.462Z" fill="black"/>
<path d="M442.253 175.254C460.56 162.851 472.615 141.884 472.615 118.154C472.615 80.1498 441.696 49.231 403.692 49.231C365.688 49.231 334.769 80.1498 334.769 118.154C334.769 156.158 365.688 187.077 403.692 187.077C447.125 187.077 482.461 222.413 482.461 265.846V364.308C482.312 364.308 344.324 364.285 343.565 364.366C338.646 364.857 334.769 369.132 334.769 374.154C334.769 375.744 334.026 370.123 354.595 493.927C355.387 498.674 359.495 502.154 364.307 502.154H443.077C447.89 502.154 451.998 498.674 452.789 493.927L471.111 384H492.307C497.745 384 502.154 379.591 502.154 374.154V265.846C502.154 225.232 477.435 190.285 442.253 175.254ZM354.461 118.154C354.461 91.0082 376.546 68.9233 403.692 68.9233C430.838 68.9233 452.923 91.0082 452.923 118.154C452.923 145.3 430.838 167.385 403.692 167.385C376.546 167.385 354.461 145.3 354.461 118.154ZM434.735 482.462H372.648L356.238 384H451.146L434.735 482.462Z" fill="black"/>
<path d="M169.467 364.533C167.758 364.165 175.206 364.33 49.2303 364.308H29.538V265.846C29.538 222.413 64.8739 187.077 108.307 187.077C146.311 187.077 177.23 156.158 177.23 118.154C177.23 80.1498 146.311 49.231 108.307 49.231C70.3031 49.231 39.3842 80.1498 39.3842 118.154C39.3842 141.884 51.4398 162.851 69.7467 175.254C34.5645 190.286 9.8457 225.232 9.8457 265.846V374.154C9.8457 379.591 14.2538 384 19.6919 384H40.8896L59.2104 493.927C60.002 498.674 64.1098 502.154 68.9226 502.154H147.692C152.505 502.154 156.612 498.674 157.404 493.927C164.227 452.923 177.13 375.729 177.192 374.904C177.203 374.774 174.29 365.611 169.467 364.533ZM59.0765 118.154C59.0765 91.0082 81.1614 68.9233 108.307 68.9233C135.453 68.9233 157.538 91.0082 157.538 118.154C157.538 145.3 135.453 167.385 108.307 167.385C81.1614 167.385 59.0765 145.3 59.0765 118.154ZM139.351 482.462H77.2633L60.8537 384H155.762L139.351 482.462Z" fill="black"/>
</svg>
