<svg width="500" height="500" viewBox="0 0 500 500" fill="none" xmlns="http://www.w3.org/2000/svg">
<rect width="500" height="500" fill="#ECDDCE"/>
<path d="M453.78 299.13H315.1V307.6H453.78V299.13Z" fill="#EBEBEB"/>
<path d="M441.4 307.59H327.46V330.95H441.4V307.59Z" fill="#EBEBEB"/>
<path d="M441.41 312.21L327.46 314.47V307.59H441.41V312.21Z" fill="#C7C7C7"/>
<path d="M424.269 326.56H344.609V312H424.269V326.56ZM345.609 325.56H423.269V313H345.609V325.56Z" fill="#DBDBDB"/>
<path d="M397.4 317.31H371.47V321.23H397.4V317.31Z" fill="#DBDBDB"/>
<path d="M326.54 465.29H322.77L333.75 330.95H343.37L326.54 465.29Z" fill="#EBEBEB"/>
<path d="M343.37 330.96L342.24 339.94H333.02L333.75 330.96H343.37Z" fill="#C7C7C7"/>
<path d="M442.33 465.29H446.1L435.13 330.95H425.5L442.33 465.29Z" fill="#EBEBEB"/>
<path d="M425.5 330.96L426.63 339.94H435.86L435.13 330.96H425.5Z" fill="#C7C7C7"/>
<path d="M427.289 166C422.042 169.158 415.929 170.574 409.827 170.045C403.726 169.515 397.948 167.067 393.323 163.052C388.698 159.037 385.463 153.661 384.082 147.694C382.701 141.727 383.244 135.476 385.634 129.837C388.024 124.197 392.138 119.46 397.387 116.303C402.635 113.146 408.748 111.731 414.85 112.263C420.951 112.794 426.728 115.243 431.352 119.259C435.976 123.276 439.21 128.653 440.589 134.62C441.978 140.585 441.439 146.837 439.049 152.476C436.659 158.115 432.542 162.85 427.289 166Z" fill="#EBEBEB"/>
<path d="M421.2 138C421.178 139.744 420.64 141.442 419.653 142.88C418.666 144.318 417.275 145.431 415.656 146.079C414.037 146.726 412.262 146.879 410.556 146.518C408.849 146.158 407.289 145.299 406.07 144.051C404.852 142.804 404.031 141.223 403.71 139.508C403.39 137.794 403.586 136.023 404.272 134.42C404.958 132.817 406.103 131.453 407.564 130.5C409.026 129.548 410.736 129.05 412.48 129.07C414.82 129.099 417.053 130.056 418.688 131.73C420.323 133.405 421.227 135.66 421.2 138Z" fill="white"/>
<path d="M427.33 162.36V166C422.714 168.774 417.416 170.208 412.031 170.141C406.646 170.074 401.386 168.508 396.84 165.62L396.89 162C396.913 159.999 397.331 158.022 398.119 156.182C398.907 154.342 400.049 152.675 401.481 151.276C402.913 149.878 404.606 148.775 406.464 148.031C408.322 147.287 410.308 146.916 412.31 146.94C414.311 146.964 416.288 147.381 418.128 148.169C419.968 148.957 421.635 150.099 423.033 151.531C424.432 152.963 425.535 154.656 426.279 156.514C427.023 158.372 427.393 160.359 427.37 162.36H427.33Z" fill="white"/>
<path d="M87.4397 214.33C84.0019 216.401 79.9967 217.33 75.9984 216.983C72 216.637 68.214 215.034 65.1831 212.404C62.1521 209.773 60.0319 206.25 59.1265 202.341C58.2212 198.431 58.577 194.335 60.1432 190.64C61.7093 186.945 64.4052 183.84 67.8444 181.772C71.2837 179.704 75.2895 178.777 79.2876 179.126C83.2856 179.475 87.0706 181.08 90.0998 183.713C93.1291 186.346 95.2469 189.87 96.1497 193.78C97.0643 197.686 96.7134 201.782 95.1477 205.476C93.5821 209.17 90.8828 212.271 87.4397 214.33Z" fill="#EBEBEB"/>
<path d="M83.4492 196C83.4353 197.143 83.0827 198.257 82.4361 199.199C81.7895 200.142 80.8779 200.872 79.8165 201.296C78.7552 201.721 77.5917 201.821 76.4734 201.585C75.355 201.348 74.3319 200.785 73.5334 199.967C72.7349 199.149 72.1969 198.113 71.9875 196.989C71.7781 195.865 71.9065 194.704 72.3567 193.654C72.8069 192.603 73.5585 191.709 74.5166 191.086C75.4747 190.462 76.5962 190.137 77.7392 190.15C79.2714 190.171 80.7327 190.799 81.803 191.896C82.8733 192.992 83.4652 194.468 83.4492 196Z" fill="white"/>
<path d="M87.4697 212V214.38C84.4425 216.202 80.9672 217.144 77.4342 217.1C73.9012 217.056 70.4505 216.027 67.4697 214.13V211.76C67.5016 209.108 68.5856 206.577 70.4835 204.724C72.3814 202.871 74.9376 201.848 77.5897 201.88C80.2419 201.912 82.7728 202.996 84.6256 204.894C86.4785 206.792 87.5016 209.348 87.4697 212Z" fill="white"/>
<path d="M106.36 315.68C106.289 317.311 106.329 318.945 106.48 320.57C106.42 319.49 106.41 318.4 106.39 317.31C106.37 316.77 106.36 316.22 106.36 315.68Z" fill="#EBEBEB"/>
<path d="M87.0496 404.08C90.9432 399.759 94.1719 394.882 96.6296 389.61L97.2396 388.87C115.67 394.54 122.87 375.24 122.42 375.21C116.92 374.78 112.07 374.64 107.18 377.48C103.366 379.827 100.168 383.049 97.8496 386.88C100.098 381.536 101.703 375.943 102.63 370.22H102.72C107.03 367.77 111.82 364.49 113.62 359.63C115.42 354.77 113.9 348.17 112.87 343.19C112.864 343.134 112.84 343.082 112.802 343.041C112.763 343 112.713 342.973 112.658 342.963C112.603 342.952 112.546 342.96 112.496 342.985C112.446 343.01 112.405 343.05 112.38 343.1C105.18 350.47 99.3796 358.44 102.06 368.92C99.3396 381.8 94.0596 392 86.5296 402.53C81.4464 387.35 79.5203 371.291 80.8696 355.34C81.0496 353.39 81.2896 351.46 81.5596 349.54C81.6618 349.532 81.7608 349.501 81.8496 349.45C87.5015 345.92 92.8083 341.865 97.6996 337.34L98.3196 336.97C107.58 345.88 119.63 338.26 128.32 332.6V332.55C128.41 332.509 128.485 332.442 128.535 332.357C128.585 332.272 128.608 332.174 128.6 332.075C128.593 331.977 128.555 331.883 128.492 331.807C128.429 331.731 128.345 331.676 128.25 331.65H128.17C128.123 331.624 128.072 331.607 128.02 331.6C122.33 329.8 117.1 327.24 111.02 328.66C107.938 329.438 105.033 330.796 102.46 332.66C110.067 324.837 116.097 315.623 120.22 305.52C120.297 305.518 120.372 305.497 120.44 305.46C131.12 300.02 135.69 290.9 134.44 279.23L134.62 278.95C134.78 278.69 134.38 278.46 134.19 278.67C127.42 286.02 117.29 291.92 120.35 303.13C117.333 308.962 113.949 314.596 110.22 320C113.67 310.61 113.73 302 109.15 292C109.172 291.94 109.178 291.874 109.165 291.811C109.153 291.748 109.124 291.689 109.08 291.642C109.037 291.594 108.981 291.559 108.919 291.542C108.857 291.524 108.792 291.523 108.73 291.54C108.697 291.539 108.665 291.546 108.635 291.56C108.606 291.574 108.58 291.594 108.56 291.62C103.877 297.333 101.101 304.369 100.62 311.74C100.31 317.21 102.89 321.21 106.74 324.74C99.8051 333.826 91.3706 341.662 81.7996 347.91C85.1396 326.02 94.1196 305.71 102.6 285.33C102.6 285.33 102.67 285.33 102.7 285.28C107.23 281.48 113.47 278.35 116.04 272.73C118.83 266.63 117.51 258.73 116.84 252.3C116.84 252.3 116.51 252.16 116.51 252.24C111.67 256.77 106.51 261.81 103.76 267.95C101.4 273.27 101.57 278.95 101.76 284.61L101.7 284.67C101.687 284.684 101.678 284.702 101.675 284.721C101.671 284.74 101.672 284.759 101.678 284.777C101.684 284.795 101.695 284.812 101.709 284.824C101.723 284.837 101.741 284.846 101.76 284.85V285.71C99.2996 290.377 96.9863 295.113 94.8196 299.92C95.1796 294.82 95.8196 289.49 94.4696 284.64C92.8696 278.64 84.7996 268 84.7496 268C84.6996 268 84.6296 268 84.6496 268.06C84.6496 268.2 84.5296 268.69 84.5396 268.73C82.5396 281.65 78.3996 296.5 93.7396 302.27C82.9996 327.19 76.6196 354 79.5796 380.05C70.2196 365.1 66.3196 348.91 64.5796 331.39C64.6191 331.374 64.6547 331.349 64.684 331.318C64.7134 331.287 64.7357 331.25 64.7496 331.21C67.1196 325.21 69.6296 318.57 69.1496 312C68.6896 305.79 65.4296 299.89 62.8196 294.35C62.791 294.291 62.7462 294.241 62.6905 294.206C62.6348 294.171 62.5704 294.153 62.5046 294.153C62.4389 294.153 62.3744 294.171 62.3187 294.206C62.263 294.241 62.2183 294.291 62.1896 294.35C59.0196 301.4 55.4896 307.76 55.9296 315.76C56.2896 322.24 59.8196 325.76 64.0696 330.3C64.0696 330.3 64.0696 330.35 64.0696 330.38V330.7L63.9996 331C63.9793 331.063 63.978 331.131 63.9957 331.195C64.0135 331.259 64.0496 331.316 64.0996 331.36C63.9951 340.782 65.2034 350.172 67.6896 359.26C65.6896 354.26 64.2996 349.37 60.6896 345.13C56.4837 340.373 51.8102 336.052 46.7396 332.23C46.6847 332.188 46.616 332.169 46.5475 332.177C46.479 332.184 46.416 332.218 46.3713 332.27C46.3266 332.322 46.3036 332.39 46.307 332.459C46.3104 332.527 46.3399 332.592 46.3896 332.64L46.4996 332.74C46.9996 339 47.5796 346.9 50.9996 352.46C54.6796 358.46 61.5796 360.16 68.0996 361.08H68.1696C70.4891 368.707 74.4483 375.734 79.7696 381.67C81.5115 395.58 86.0455 408.995 93.0996 421.11C93.3596 421.55 94.0996 421.16 93.8996 420.69C91.2679 415.304 88.98 409.756 87.0496 404.08ZM106.44 379.17C111.65 375.67 116.09 376.36 121.62 376.05C118.62 379.94 116.87 383.34 112.72 385.93C108.23 388.72 102.84 388.32 97.7196 388.23C100.4 385 102.91 381.55 106.44 379.17ZM102.84 368.92C102.852 368.839 102.835 368.755 102.794 368.684C102.752 368.613 102.687 368.559 102.61 368.53C102.21 363.15 102.07 358.83 105.21 353.87C107.4 350.41 109.87 347.09 112.36 343.87C112.56 348.38 113.46 352.95 112.67 357.4C111.74 362.72 107.37 366.4 102.84 368.95V368.92ZM126.84 287.49C129.37 284.99 132.01 282.83 134 279.93C133.19 284.93 133.61 289.73 130.86 294.31C128.456 298.088 125.177 301.23 121.3 303.47C120.27 297.09 122.25 292 126.83 287.49H126.84ZM106.49 320.57C106.534 321.365 106.624 322.156 106.76 322.94C104.229 318.926 103.035 314.214 103.35 309.48C103.77 303.54 107.05 298.6 108.68 293.02C108.68 293.09 108.68 293.17 108.68 293.24C107.382 298.333 106.628 303.548 106.43 308.8C106.32 311.09 106.32 313.39 106.36 315.68C106.43 313.31 106.64 310.96 106.75 308.8C107.045 303.863 107.713 298.956 108.75 294.12C109.01 298.94 110.03 303.66 109.75 308.53C109.346 313.564 108.472 318.549 107.14 323.42L106.94 323.19C106.734 322.327 106.58 321.452 106.48 320.57H106.49ZM111.64 306.17C112 312.36 109.4 318.02 107.36 323.72L107.24 323.57C108.58 318.802 109.503 313.927 110 309C110.182 303.863 109.796 298.722 108.85 293.67L108.91 293.41C109.84 297.6 111.37 301.87 111.63 306.17H111.64ZM102.76 306.65C103.94 301.83 106.08 297.84 108.32 293.59C106.32 299.25 103.12 304.38 103 310.59C102.897 314.522 103.857 318.409 105.78 321.84C102.28 317.32 101.13 313.33 102.75 306.65H102.76ZM111.44 330C116.89 328.73 121.6 331.1 126.74 332.3C122.47 335.13 118.12 338.49 113.05 339.41C107.98 340.33 103.56 338.8 99.1596 336.48C103.13 334 106.71 331.07 111.44 330ZM105.44 267.57C107.92 262.08 111.68 257.85 115.63 253.51C109.767 261.404 105.522 270.38 103.14 279.92C103.59 275.77 103.64 271.65 105.48 267.55L105.44 267.57ZM102.64 283.57C102.74 283.07 102.82 282.57 102.89 282.08C105.398 271.976 109.751 262.423 115.73 253.9C110.751 263.31 106.495 273.085 103 283.14L102.64 283.57ZM103.11 283.03C106.879 272.821 111.264 262.849 116.24 253.17C115.24 258.63 114.91 264.41 112.85 269.58C110.79 274.75 106.79 278.83 103.15 283L103.11 283.03ZM113 270.12C115.24 264.79 115.78 258.52 116.52 252.81C116.52 258.58 116.8 266.75 114.52 272.01C112.34 277.01 107.33 280.06 103.2 283.4C106.83 279.34 110.87 275.14 113 270.12ZM84.9996 269.25C84.9996 269.17 84.9996 269.08 84.9996 269C87.4696 273.87 90.7596 278 92.5296 283.47C94.1596 288.47 94.0496 294.78 93.9196 300.26C93.7517 297.19 93.3472 294.138 92.7096 291.13H92.6496C93.1596 294.36 93.4496 297.58 93.6496 300.83C91.3996 295.76 88.6496 290.91 87.1396 285.53C85.7203 280.475 85.0002 275.25 84.9996 270C87.5696 276.58 91.4996 282.38 92.4096 289.62C91.6596 282.51 88.1496 275.6 84.9996 269.25ZM85.3096 277.52C85.6455 280.255 86.1633 282.964 86.8596 285.63C88.5425 291.123 90.8228 296.414 93.6596 301.41C89.4446 297.784 86.4285 292.966 85.0096 287.59C83.7996 282.59 84.2696 277.35 84.6496 272.21C84.8196 274 85.1096 275.78 85.3496 277.52H85.3096ZM83.4896 284.58C83.4756 282.239 83.6259 279.9 83.9396 277.58C83.6776 281.348 84.0804 285.132 85.1296 288.76C86.6571 293.775 89.6357 298.226 93.6896 301.55C93.6896 301.66 93.6896 301.77 93.6896 301.88C87.2996 297.65 83.7096 292.51 83.5296 284.58H83.4896ZM57.3396 314.58C57.2396 308.31 62.4096 296.01 62.4096 296.01C62.7296 296.19 67.3196 308.65 67.6496 311.19C68.4296 317.3 66.1396 324.19 64.2196 330.03C61.6196 324.46 57.4796 321.37 57.3796 314.54L57.3396 314.58ZM50.4596 348.58C48.5696 343.58 48.0596 338.2 46.8096 333.06C51.2596 337.14 55.9196 341.06 59.8696 345.63C63.6196 349.98 64.8696 355.19 67.5596 360.01C60.2096 358.46 53.4496 356.32 50.4996 348.59L50.4596 348.58Z" fill="#EBEBEB"/>
<path d="M129.339 293.1C131.329 288.996 132.833 284.673 133.819 280.22L134.129 279.78C134.133 279.768 134.134 279.755 134.13 279.743C134.127 279.731 134.12 279.72 134.11 279.712C134.1 279.705 134.087 279.7 134.075 279.7C134.062 279.699 134.05 279.703 134.039 279.71L133.869 279.9C133.86 279.888 133.848 279.877 133.834 279.87C133.82 279.864 133.805 279.86 133.789 279.86C133.774 279.86 133.758 279.864 133.745 279.87C133.731 279.877 133.719 279.888 133.709 279.9C133.7 279.891 133.687 279.886 133.674 279.886C133.661 279.886 133.649 279.891 133.639 279.9L133.199 280.65C127.329 287.22 122.299 294.65 120.919 303.42L120.449 303.91C120.449 303.91 120.719 303.62 120.859 303.47C120.859 303.78 120.759 304.08 120.719 304.39C120.719 304.39 120.779 304.45 120.789 304.39C120.789 304.05 120.889 303.71 120.949 303.39L121.259 303.06C121.189 303.26 121.119 303.47 121.059 303.67C120.999 303.87 121.179 303.81 121.219 303.67L121.689 302.57C124.579 299.68 127.459 296.84 129.339 293.1ZM133.459 280.72C132.398 284.941 130.942 289.052 129.109 293C127.152 296.529 124.682 299.747 121.779 302.55C124.949 295.17 129.319 288.4 133.069 281.29L133.459 280.72ZM120.999 303.34C121.671 298.966 123.248 294.78 125.629 291.05C127.549 288.11 129.849 285.45 131.989 282.68C130.119 285.89 128.339 289.15 126.539 292.39C124.619 295.82 122.539 299.24 121.329 302.99L120.999 303.34Z" fill="#EBEBEB"/>
<path d="M127.839 332.38L127.049 332.21H126.869L126.999 332L126.779 332.14C122.319 331.14 117.779 330.44 113.179 331.14C108.255 332.031 103.52 333.76 99.1795 336.25L98.4795 335.93L99.1495 336.25H99.0395L98.7095 336.36V336.43C98.7095 336.43 98.7095 336.52 98.7095 336.5L99.2695 336.26C103.493 338.203 108.189 338.881 112.789 338.21C115.24 337.806 117.625 337.073 119.879 336.03C122.109 335.03 124.769 333.96 126.639 332.31L127.819 332.56C127.929 332.63 127.999 332.41 127.839 332.38ZM113.149 331.38C117.271 330.907 121.443 331.154 125.479 332.11C116.874 331.95 108.302 333.231 100.119 335.9C104.299 334.05 108.629 332.07 113.149 331.39V331.38ZM99.2995 336.27H99.3595C108.092 333.522 117.205 332.172 126.359 332.27H126.479C118.309 337.8 108.519 340.24 99.2995 336.27Z" fill="#EBEBEB"/>
<path d="M103 368.85V368.8V368.94C103 368.94 103.06 369 103.07 368.94C103.08 368.88 103.07 368.78 103.07 368.69C106.07 365.56 108.93 362.16 110.46 358.08C112.12 353.66 112.25 348.91 112.21 344.25L112.43 343.93C112.43 343.88 112.43 343.83 112.36 343.87L112.21 344.07V343.91C112.21 343.99 112.21 344.07 112.21 344.14C112.21 344.21 111.99 344.43 111.89 344.58L112.25 343.71C112.25 343.71 112.25 343.64 112.2 343.71C111.93 344.2 111.68 344.71 111.44 345.2C106.3 352.15 102.62 359.99 102.78 368.84L102.15 369.52C102.09 369.6 102.15 369.71 102.26 369.63L102.79 369.09C102.79 369.3 102.79 369.5 102.79 369.71C102.79 369.738 102.801 369.765 102.82 369.785C102.84 369.804 102.867 369.815 102.895 369.815C102.923 369.815 102.949 369.804 102.969 369.785C102.989 369.765 103 369.738 103 369.71C103 369.42 103 369.13 103 368.85ZM105.29 356.28C106.758 352.669 108.672 349.255 110.99 346.12C109.7 348.89 108.63 351.74 107.55 354.61C107.55 354.61 107.55 354.61 107.6 354.61C108.83 351.42 110.27 348.33 111.6 345.19L112.17 344.36C111.96 348.66 111.81 353.08 110.48 357.2C109.05 361.59 106.2 365.01 103.17 368.35C103.889 364.774 104.951 361.274 106.34 357.9C104.883 361.29 103.797 364.827 103.1 368.45L102.99 368.58C103.081 364.381 103.865 360.225 105.31 356.28H105.29Z" fill="#EBEBEB"/>
<path d="M121.87 376C121.88 375.993 121.889 375.983 121.894 375.972C121.9 375.96 121.903 375.948 121.903 375.935C121.903 375.922 121.9 375.91 121.894 375.899C121.889 375.887 121.88 375.878 121.87 375.87L122.04 375.67C122.04 375.61 122.04 375.53 121.95 375.59C121.86 375.65 121.75 375.81 121.65 375.92L121.17 376.07C116.946 376.545 112.807 377.599 108.87 379.2C104.93 380.96 101.87 383.77 98.8698 386.82C98.4098 387.15 97.9598 387.49 97.5098 387.82C97.5098 387.82 97.5098 387.92 97.5098 387.89L98.2398 387.42L97.9598 387.71L98.4098 387.29C105.344 382.835 112.77 379.198 120.54 376.45L121.14 376.34C118.285 379.483 114.93 382.133 111.21 384.18C106.62 386.66 102.12 387.56 97.0098 388.18V388.24C106.27 388.53 115.51 383.24 121.4 376.32L121.73 376.26C121.764 376.279 121.805 376.283 121.842 376.272C121.88 376.26 121.911 376.235 121.93 376.2C121.948 376.166 121.952 376.125 121.941 376.088C121.93 376.05 121.904 376.019 121.87 376ZM99.4398 386.41C102.35 383.71 105.44 381.08 109.04 379.41C112.219 378.108 115.543 377.191 118.94 376.68C112.003 378.962 105.434 382.24 99.4398 386.41Z" fill="#EBEBEB"/>
<path d="M64.5197 330.4C64.5197 330.31 64.5197 330.23 64.5197 330.15C64.5545 330.129 64.5807 330.097 64.5935 330.058C64.6064 330.02 64.605 329.978 64.5897 329.94L64.4897 329.72C64.2297 324.39 63.2897 319.15 62.7697 313.84C62.2197 308.17 62.3997 302.49 62.3997 296.84C62.5197 296.32 62.6397 295.84 62.7497 295.28C62.7555 295.246 62.7481 295.21 62.7291 295.181C62.71 295.152 62.6806 295.13 62.6467 295.122C62.6129 295.113 62.5769 295.117 62.546 295.134C62.5151 295.15 62.4914 295.177 62.4797 295.21C61.4787 298.461 60.6805 301.771 60.0897 305.12C59.4428 307.862 59.1371 310.673 59.1797 313.49C59.4897 319.15 61.7997 325.11 64.3297 330.13C64.3394 330.15 64.3534 330.168 64.3707 330.182C64.388 330.195 64.4081 330.205 64.4297 330.21C64.4297 330.28 64.4297 330.36 64.4297 330.44C64.4297 330.52 64.5197 330.45 64.5197 330.4ZM59.5897 312.57C59.5897 307.35 61.1397 302.19 62.3197 297.11C61.9879 302.684 62.0514 308.275 62.5097 313.84C63.0097 319.07 64.0597 324.24 64.3797 329.48C62.0797 324.24 59.6097 318.36 59.5897 312.57Z" fill="#EBEBEB"/>
<path d="M64.6892 330.56C64.9192 324.86 67.1392 319.63 66.6292 313.85C66.2672 308.893 65.1055 304.026 63.1892 299.44C63.1892 299.44 63.1092 299.44 63.1292 299.44C65.0848 304.425 66.1966 309.7 66.4192 315.05C66.6892 320.31 64.7592 325.31 64.5592 330.54C64.5592 330.65 64.6892 330.64 64.6892 330.56Z" fill="#EBEBEB"/>
<path d="M69.3699 359.74C68.7791 359.694 68.1914 359.614 67.6099 359.5L67.1699 359.19C64.2299 354.9 61.6699 350.41 58.3699 346.37C54.6999 341.87 51.0999 337.19 47.0199 333.05C47.0199 333.05 46.9399 333.05 46.9699 333.1C50.5099 337.37 54.1099 341.59 57.6299 345.87C60.9999 349.94 63.5299 354.5 66.5699 358.77C62.3556 355.814 58.5815 352.275 55.3599 348.26C51.7199 343.64 49.3599 338.47 46.9499 333.15C46.9499 333.15 46.8799 333.15 46.8899 333.15C46.9499 333.4 47.0399 333.65 47.1099 333.89C46.9599 333.49 46.7899 333.08 46.6099 332.69C46.5959 332.669 46.5751 332.653 46.551 332.646C46.5268 332.638 46.5008 332.639 46.4774 332.648C46.4539 332.658 46.4343 332.675 46.4221 332.697C46.4098 332.719 46.4055 332.745 46.4099 332.77C48.3099 338.55 48.7199 345.34 52.5199 350.3C56.1585 355.139 61.4142 358.51 67.3299 359.8L67.5599 360.12C67.6399 360.23 67.8299 360.12 67.7499 360.01L67.6399 359.85L67.9099 359.9L68.0899 360.01C68.1499 360.01 68.1999 360.01 68.2099 359.94C68.5899 360 68.9799 360.05 69.3699 360.08C69.5999 360.12 69.5999 359.76 69.3699 359.74ZM66.9999 359.39C63.8555 358.662 60.8856 357.321 58.2602 355.444C55.6348 353.567 53.4055 351.19 51.6999 348.45C49.4399 344.65 49.0199 340.2 47.8199 336.03C51.2499 345.35 58.8199 353.92 66.9399 359.29C66.963 359.321 66.9831 359.355 66.9999 359.39Z" fill="#EBEBEB"/>
<path d="M109.84 403.87C109.84 403.87 109.26 409.07 108.45 416.47C106.53 433.91 103.32 463.47 103.32 465.29H74.3896C74.3896 463.49 71.1896 433.91 69.2796 416.47C68.4696 409.07 67.8896 403.87 67.8896 403.87H109.84Z" fill="#DBDBDB"/>
<path d="M109.84 403.87C109.84 403.87 109.26 409.07 108.45 416.47H69.2796C68.4696 409.07 67.8896 403.87 67.8896 403.87H109.84Z" fill="#C7C7C7"/>
<path d="M112.48 401.78H65.25V410.98H112.48V401.78Z" fill="#DBDBDB"/>
<path d="M46.2305 465.29L97.1705 465.05L148.11 464.96L250 464.79L351.89 464.96L402.83 465.05L453.77 465.29L402.83 465.54L351.89 465.62L250 465.79L148.11 465.62L97.1705 465.54L46.2305 465.29Z" fill="#263238"/>
<path d="M370.89 228H365.95V299.32H370.89V228Z" fill="#E093A0"/>
<path opacity="0.1" d="M370.89 228H365.95V299.32H370.89V228Z" fill="black"/>
<path d="M365.04 263.16H363.54V264.16H365.04V263.16Z" fill="#E093A0"/>
<path d="M360.72 264.16H357.91V263.16H360.72V264.16ZM355.09 264.16H352.27V263.16H355.06L355.09 264.16ZM349.46 264.16H346.64V263.16H349.46V264.16ZM343.82 264.16H341V263.16H343.82V264.16ZM338.19 264.16H335.37V263.16H338.19V264.16ZM332.55 264.16H329.74V263.16H332.55V264.16ZM326.92 264.16H324.06V263.16H326.88L326.92 264.16Z" fill="#E093A0"/>
<path d="M321.29 263.16H319.79V264.16H321.29V263.16Z" fill="#E093A0"/>
<path d="M319.88 265.54C320.918 265.54 321.76 264.698 321.76 263.66C321.76 262.621 320.918 261.78 319.88 261.78C318.842 261.78 318 262.621 318 263.66C318 264.698 318.842 265.54 319.88 265.54Z" fill="#E093A0"/>
<path d="M332.89 147.41H404.21V76.0897L332.89 76.0897V147.41Z" fill="#E093A0"/>
<path d="M332.889 76.0898H327.949V147.41H332.889V76.0898Z" fill="#E093A0"/>
<path opacity="0.1" d="M332.889 76.0898H327.949V147.41H332.889V76.0898Z" fill="black"/>
<path d="M388.56 96.7699L387.49 97.7699L370.55 113.9C370.311 114.184 370.014 114.412 369.678 114.569C369.342 114.725 368.975 114.806 368.605 114.806C368.234 114.806 367.868 114.725 367.532 114.569C367.196 114.412 366.898 114.184 366.66 113.9L349.28 97.5199L348.6 96.8499C349.051 96.5673 349.577 96.4279 350.11 96.4499H361.87L386.41 96.3499C387.153 96.2612 387.905 96.4081 388.56 96.7699Z" fill="white"/>
<path d="M388.51 126.77C388.035 126.9 387.55 126.987 387.06 127.03C382.37 127.03 377.68 127.03 372.99 127.1L350.38 127.19C349.738 127.215 349.103 127.055 348.55 126.73L362.55 113.36L365.26 115.91L366.41 116.99C366.69 117.28 367.025 117.511 367.396 117.669C367.767 117.827 368.167 117.908 368.57 117.908C368.973 117.908 369.372 117.827 369.743 117.669C370.114 117.511 370.45 117.28 370.73 116.99C371.97 115.82 373.2 114.63 374.49 113.39L388.49 126.6L388.51 126.77Z" fill="white"/>
<path d="M360.87 111.74C356.32 116.17 351.7 120.47 347.2 124.92C347.145 124.703 347.112 124.482 347.1 124.26C347.06 116 347.027 107.74 347 99.4797C347.012 99.2179 347.042 98.9573 347.09 98.6997L360.87 111.74Z" fill="white"/>
<path d="M390 124.78C388.3 123.153 386.59 121.527 384.87 119.9L376.55 112.05L376.22 111.79C380.8 107.33 385.43 103.02 389.9 98.6001C390.09 99.0801 390.2 124.12 390 124.78Z" fill="white"/>
<path d="M367.739 151.69H366.739V153.19H367.739V151.69Z" fill="#E093A0"/>
<path d="M367.739 164.81H366.739V161.91H367.739V164.81ZM367.739 159H366.739V156.09H367.739V159Z" fill="#E093A0"/>
<path d="M365.949 170.13L365.659 169.17L366.739 168.84V167.72H367.739V169.59L365.949 170.13Z" fill="#E093A0"/>
<path d="M316.229 185.27L315.939 184.27L318.699 183.43L318.999 184.43L316.229 185.27ZM321.759 183.59L321.469 182.59L324.229 181.74L324.519 182.74L321.759 183.59ZM327.279 181.91L326.989 180.91L329.749 180.07L330.039 181.07L327.279 181.91ZM332.809 180.23L332.509 179.23L335.279 178.39L335.569 179.39L332.809 180.23ZM338.329 178.54L338.039 177.59L340.799 176.75L341.089 177.7L338.329 178.54ZM343.849 176.86L343.559 175.86L346.329 175.02L346.619 176.02L343.849 176.86ZM349.379 175.18L349.089 174.18L351.849 173.34L352.139 174.34L349.379 175.18ZM354.899 173.5L354.609 172.5L357.369 171.66L357.659 172.66L354.899 173.5ZM360.429 171.81L360.139 170.86L362.899 170.02L363.189 170.97L360.429 171.81Z" fill="#E093A0"/>
<path d="M313.176 185.189L311.741 185.625L312.032 186.582L313.467 186.145L313.176 185.189Z" fill="#E093A0"/>
<path d="M311.98 187.93C313.018 187.93 313.86 187.088 313.86 186.05C313.86 185.012 313.018 184.17 311.98 184.17C310.941 184.17 310.1 185.012 310.1 186.05C310.1 187.088 310.941 187.93 311.98 187.93Z" fill="#E093A0"/>
<path d="M137.32 281.03H66V352.35H137.32V281.03Z" fill="#E093A0"/>
<path d="M137.32 352.35H142.26V281.03H137.32V352.35Z" fill="#E093A0"/>
<path opacity="0.1" d="M137.32 352.35H142.26V281.03H137.32V352.35Z" fill="black"/>
<path d="M117.96 303.71C114.48 296.03 105.6 291.99 97.0602 294.12C89.8102 295.92 83.1602 302.58 83.9902 312.01C84.3202 314.728 85.1222 317.368 86.3602 319.81C88.9874 325.18 92.4017 330.128 96.4902 334.49C98.1102 336.31 99.8302 338.04 101.49 339.83C101.74 339.61 101.91 339.49 102.04 339.35C104.23 337 106.49 334.73 108.58 332.29C112.552 327.873 115.722 322.797 117.95 317.29C119.71 312.73 120 308.21 117.96 303.71ZM112.63 310.28C112.595 312.475 111.903 314.609 110.645 316.408C109.386 318.206 107.618 319.587 105.568 320.373C103.519 321.158 101.281 321.313 99.1424 320.816C97.0041 320.319 95.0634 319.194 93.5699 317.585C92.0764 315.976 91.0984 313.958 90.7618 311.788C90.4251 309.619 90.7452 307.399 91.6809 305.413C92.6165 303.427 94.125 301.767 96.0121 300.645C97.8992 299.524 100.079 298.992 102.27 299.12C105.103 299.285 107.763 300.538 109.693 302.618C111.624 304.697 112.676 307.443 112.63 310.28Z" fill="white"/>
<path d="M102.16 275.74H101.16V277.24H102.16V275.74Z" fill="#E093A0"/>
<path d="M102.16 272.84H101.16V269.93H102.16V272.84ZM102.16 267.03H101.16V264.12H102.16V267.03Z" fill="#E093A0"/>
<path d="M102.16 261.22H101.16V259.35L102.94 258.8L103.24 259.76L102.16 260.09V261.22Z" fill="#E093A0"/>
<path d="M106 258.92L105.71 257.92L108.47 257.08L108.76 258.08L106 258.92ZM111.52 257.23L111.23 256.23L113.99 255.39L114.28 256.34L111.52 257.23ZM117.05 255.55L116.75 254.55L119.52 253.71L119.81 254.71L117.05 255.55ZM122.57 253.87L122.28 252.87L125.04 252.03L125.33 253.03L122.57 253.87ZM128.09 252.19L127.8 251.19L130.57 250.35L130.86 251.35L128.09 252.19ZM133.62 250.5L133.33 249.55L136.09 248.71L136.38 249.71L133.62 250.5ZM139.14 248.82L138.85 247.82L141.61 246.98L141.9 247.98L139.14 248.82ZM144.63 247.14L144.34 246.14L147.1 245.3L147.39 246.3L144.63 247.14ZM150.15 245.46L149.86 244.46L152.62 243.62L152.91 244.57L150.15 245.46Z" fill="#E093A0"/>
<path d="M156.851 242.404L155.416 242.84L155.707 243.797L157.142 243.36L156.851 242.404Z" fill="#E093A0"/>
<path d="M157.46 244.68C157.817 244.573 158.133 244.362 158.37 244.075C158.606 243.787 158.752 243.436 158.789 243.066C158.826 242.695 158.752 242.323 158.576 241.994C158.401 241.666 158.132 241.397 157.804 241.222C157.476 241.046 157.103 240.972 156.732 241.009C156.362 241.046 156.011 241.192 155.723 241.428C155.436 241.665 155.225 241.981 155.118 242.338C155.011 242.694 155.011 243.074 155.12 243.43C155.19 243.667 155.306 243.888 155.462 244.079C155.618 244.271 155.811 244.429 156.028 244.546C156.246 244.662 156.485 244.734 156.731 244.757C156.977 244.78 157.225 244.754 157.46 244.68Z" fill="#E093A0"/>
<path d="M442.32 228H371V299.32H442.32V228Z" fill="#E093A0"/>
<path d="M442.32 299.32H447.26V228H442.32V299.32Z" fill="#E093A0"/>
<path d="M422.23 284.02C421.451 284.726 420.493 285.203 419.46 285.4C419 285.51 418.54 285.58 418.08 285.67H415.67C414.87 285.54 414.07 285.44 413.27 285.27C410.125 284.572 407.148 283.26 404.51 281.41C398.307 277.243 392.988 271.89 388.86 265.66C387.034 263.056 385.743 260.116 385.06 257.01C384.89 256.19 384.78 255.36 384.65 254.53V252.21C384.78 251.453 384.957 250.705 385.18 249.97C385.465 249.28 385.799 248.612 386.18 247.97C386.37 248.14 386.47 248.21 386.56 248.29C389.86 251.624 393.164 254.924 396.47 258.19C396.561 258.266 396.626 258.369 396.655 258.484C396.683 258.599 396.675 258.72 396.63 258.83C396.358 259.657 396.313 260.542 396.502 261.392C396.69 262.242 397.104 263.026 397.7 263.66C400.5 266.854 403.507 269.86 406.7 272.66C407.339 273.238 408.121 273.636 408.965 273.811C409.808 273.987 410.684 273.935 411.5 273.66C411.594 273.614 411.699 273.599 411.802 273.617C411.904 273.635 411.998 273.685 412.07 273.76L422.07 283.83L422.23 284.02Z" fill="white"/>
<path d="M428.031 278.24C426.871 279.413 425.707 280.577 424.541 281.73L424.291 281.96L414.141 271.82C414.371 271.6 414.651 271.36 414.911 271.11C415.911 270.11 416.911 269.11 417.911 268.11C418.061 267.909 418.255 267.746 418.479 267.634C418.703 267.522 418.95 267.463 419.201 267.463C419.451 267.463 419.698 267.522 419.922 267.634C420.146 267.746 420.341 267.909 420.491 268.11C423.024 270.63 425.547 273.153 428.061 275.68C428.259 275.83 428.42 276.025 428.53 276.249C428.64 276.472 428.695 276.719 428.692 276.968C428.69 277.217 428.628 277.462 428.513 277.683C428.398 277.904 428.233 278.095 428.031 278.24Z" fill="white"/>
<path d="M402.27 252.32C400.98 253.58 399.66 254.81 398.36 256.04L388.36 246.04C388.421 245.958 388.488 245.881 388.56 245.81C389.74 244.624 390.924 243.437 392.11 242.25C392.258 242.063 392.447 241.912 392.661 241.808C392.876 241.703 393.112 241.649 393.35 241.649C393.589 241.649 393.825 241.703 394.039 241.808C394.254 241.912 394.442 242.063 394.59 242.25C397.14 244.8 399.7 247.35 402.24 249.9C402.422 250.044 402.569 250.227 402.671 250.435C402.773 250.643 402.828 250.871 402.831 251.103C402.834 251.335 402.785 251.564 402.688 251.775C402.591 251.985 402.448 252.172 402.27 252.32Z" fill="white"/>
<path d="M161.69 76.0898H90.3701V147.41H161.69V76.0898Z" fill="#E093A0"/>
<path d="M161.69 147.41H166.63V76.0897H161.69V147.41Z" fill="#E093A0"/>
<path opacity="0.1" d="M161.69 147.41H166.63V76.0897H161.69V147.41Z" fill="black"/>
<path d="M138.33 102C138.303 104.357 137.576 106.653 136.244 108.598C134.911 110.542 133.031 112.048 130.843 112.925C128.654 113.801 126.255 114.009 123.948 113.522C121.642 113.035 119.531 111.875 117.884 110.188C116.237 108.502 115.127 106.365 114.694 104.047C114.261 101.73 114.525 99.3361 115.453 97.1687C116.38 95.0014 117.93 93.1578 119.905 91.8711C121.881 90.5844 124.193 89.9123 126.55 89.9398C128.116 89.9581 129.662 90.2845 131.101 90.9005C132.541 91.5165 133.844 92.4099 134.938 93.5298C136.032 94.6497 136.895 95.9741 137.477 97.4274C138.059 98.8807 138.349 100.434 138.33 102Z" fill="white"/>
<path d="M146.58 133.59H105.47C105.73 128.314 108.009 123.34 111.836 119.697C115.662 116.055 120.742 114.024 126.025 114.024C131.307 114.024 136.388 116.055 140.214 119.697C144.04 123.34 146.319 128.314 146.58 133.59Z" fill="white"/>
<path d="M126.53 151.69H125.53V153.19H126.53V151.69Z" fill="#E093A0"/>
<path d="M126.53 164.81H125.53V161.91H126.53V164.81ZM126.53 159H125.53V156.09H126.53V159Z" fill="#E093A0"/>
<path d="M127.31 170.13L125.53 169.59V167.72H126.53V168.84L127.61 169.17L127.31 170.13Z" fill="#E093A0"/>
<path d="M177.001 185.27L174.241 184.43L174.531 183.43L177.291 184.27L177.001 185.27ZM171.481 183.59L168.721 182.75L169.011 181.75L171.771 182.6L171.481 183.59ZM166.001 181.91L163.241 181.07L163.531 180.07L166.291 180.91L166.001 181.91ZM160.481 180.23L157.721 179.39L158.011 178.39L160.771 179.23L160.481 180.23ZM154.961 178.54L152.191 177.7L152.481 176.75L155.251 177.59L154.961 178.54ZM149.431 176.86L146.671 176.02L146.961 175.02L149.721 175.86L149.431 176.86ZM143.911 175.18L141.141 174.34L141.441 173.34L144.201 174.18L143.911 175.18ZM138.381 173.5L135.621 172.66L135.911 171.66L138.671 172.5L138.381 173.5ZM132.861 171.81L130.101 170.97L130.391 170.02L133.151 170.86L132.861 171.81Z" fill="#E093A0"/>
<path d="M180.093 185.166L179.802 186.123L181.237 186.56L181.528 185.603L180.093 185.166Z" fill="#E093A0"/>
<path d="M180.74 187.85C181.095 187.958 181.475 187.959 181.831 187.851C182.187 187.744 182.503 187.533 182.739 187.246C182.975 186.959 183.121 186.609 183.158 186.239C183.195 185.869 183.122 185.497 182.947 185.169C182.772 184.84 182.505 184.571 182.177 184.395C181.85 184.219 181.478 184.145 181.108 184.18C180.738 184.215 180.387 184.36 180.099 184.595C179.811 184.83 179.599 185.145 179.49 185.5C179.417 185.736 179.392 185.985 179.416 186.231C179.439 186.477 179.511 186.716 179.627 186.934C179.744 187.153 179.902 187.346 180.092 187.503C180.283 187.66 180.503 187.778 180.74 187.85Z" fill="#E093A0"/>
<path d="M261.37 401.41H200.59V405.87H261.37V401.41Z" fill="#C7C7C7"/>
<path d="M205.66 254.04L205.34 278.26L203.29 392.2L203.22 397.32L202.32 464.73H198.88L197.97 397.32L197.91 392.2L195.85 278.26L195.53 254.04H205.66Z" fill="#C7C7C7"/>
<path d="M195.53 254.04H205.66L205.34 278.26H195.85L195.53 254.04Z" fill="#A6A6A6"/>
<path d="M266.44 254.04L266.11 278.26L263.09 464.73H259.65L258.75 397.32L258.68 392.2L256.62 278.26L256.3 254.04H266.44Z" fill="#C7C7C7"/>
<path d="M266.44 254.04L266.11 278.26H256.62L256.3 254.04H266.44Z" fill="#A6A6A6"/>
<path d="M229.9 401.41H170.24V405.87H229.9V401.41Z" fill="#C7C7C7"/>
<path d="M175.31 254.04L174.98 278.26L172.93 392.2L172.86 397.32L171.96 464.73H168.52L165.5 278.26L165.17 254.04H175.31Z" fill="#C7C7C7"/>
<path d="M165.17 254.04H175.31L174.98 278.26H165.5L165.17 254.04Z" fill="#A6A6A6"/>
<path d="M234.97 254.04L234.65 278.26L232.59 392.2L232.53 397.32L231.62 464.73H228.19L227.28 397.32L227.22 392.2L225.16 278.26L224.84 254.04H234.97Z" fill="#C7C7C7"/>
<path d="M224.84 254.04H234.97L234.65 278.26H225.16L224.84 254.04Z" fill="#A6A6A6"/>
<path d="M271.701 229.79H161.141V256.03H271.701V229.79Z" fill="#E093A0"/>
<path d="M271.701 229.79H161.141V256.03H271.701V229.79Z" fill="#37474F"/>
<path d="M248.611 229.79H161.141V256.03H248.611V229.79Z" fill="#455A64"/>
<path d="M239.31 331.85L199.64 363.91C192.02 370 185.46 375.47 182.33 378.62C182.319 378.624 182.308 378.631 182.299 378.639C182.291 378.648 182.284 378.658 182.28 378.67C181.09 379.85 180.41 380.67 180.37 381.11C180.37 381.11 180.37 381.17 180.37 381.19C180.65 384.69 227.52 446.95 229.88 448.57C232.24 450.19 237.06 443.57 237.16 439.71C237.26 435.85 230 404 230 404L269.32 371.6L239.31 331.85Z" fill="#F7A9A0"/>
<path d="M233.64 420.6C235.44 428.98 237.2 437.78 237.16 439.71C237.05 443.57 232.24 450.21 229.88 448.57C227.52 446.93 180.64 384.69 180.37 381.2C180.37 381.2 180.37 381.15 180.37 381.11C180.37 380.7 181.09 379.85 182.28 378.67C182.28 378.67 182.28 378.67 182.28 378.62C184.82 376.06 189.64 371.98 195.43 367.27C196.77 366.17 198.17 365.06 199.6 363.9L239.27 331.84L269.27 371.56L230 404C230 404 231.85 412.09 233.67 420.62L233.64 420.6Z" fill="#F7A9A0"/>
<path d="M237.16 439.71C237.05 443.57 232.24 450.21 229.88 448.57C227.52 446.93 180.64 384.69 180.37 381.2C180.37 381.2 180.37 381.15 180.37 381.11C180.37 380.7 181.09 379.85 182.28 378.67C182.28 378.67 182.28 378.67 182.28 378.62C184.82 376.06 189.64 371.98 195.43 367.27C204.03 384.66 227.62 431.39 232.38 431.07C234.07 430.95 234.02 425.61 233.6 420.6C235.44 429 237.2 437.78 237.16 439.71Z" fill="#263238"/>
<path d="M260.751 293.67C257.941 307.54 200.391 362.89 200.391 362.89L240.511 409.2C240.511 409.2 322.221 327.64 318.001 297C314.301 270.35 274.391 163.15 274.391 163.15H228.391C228.391 163.15 263.511 280 260.751 293.67Z" fill="#37474F"/>
<path d="M260.751 293.67C257.941 307.54 200.391 362.89 200.391 362.89L240.511 409.2C240.511 409.2 322.221 327.64 318.001 297C314.301 270.35 274.391 163.15 274.391 163.15H228.391C228.391 163.15 263.511 280 260.751 293.67Z" fill="#263238"/>
<path d="M245.08 398.19C239.75 391.55 241.37 393.38 235.97 386.8C233.32 383.59 215.92 362.46 212.97 359.89C212.955 359.875 212.934 359.866 212.912 359.865C212.891 359.864 212.87 359.871 212.853 359.884C212.836 359.898 212.824 359.917 212.82 359.938C212.816 359.959 212.819 359.981 212.83 360C214.83 363.4 232.61 384.22 235.31 387.39C240.84 393.86 239.31 391.94 244.93 398.39C245 398.47 245.18 398.31 245.08 398.19Z" fill="#37474F"/>
<path d="M266.47 286.91C265.81 283.45 265.06 280 264.33 276.55C262.83 269.51 261.244 262.487 259.57 255.48C256.237 241.594 252.633 227.784 248.76 214.05C244.83 200.27 240.68 186.51 235.91 173C235.32 171.34 234.71 169.67 234.1 168C234.092 167.974 234.074 167.951 234.05 167.938C234.025 167.925 233.997 167.922 233.97 167.93C233.944 167.938 233.921 167.956 233.908 167.981C233.895 168.005 233.892 168.034 233.9 168.06C238.03 181.59 242.3 195.06 246.18 208.7C250.06 222.34 253.62 235.89 256.99 249.57C258.68 256.44 260.26 263.34 261.8 270.25C262.553 273.637 263.29 277.034 264.01 280.44C264.919 283.907 265.564 287.437 265.94 291C266.056 294.359 265.111 297.669 263.24 300.46C261.51 303.29 259.48 305.94 257.52 308.61C253.58 313.94 216.11 355.7 214.9 356.84C214.81 356.93 214.9 357.06 215.05 356.97C220.05 352.46 251.87 318.04 255.91 312.71C257.91 310.08 259.85 307.41 261.77 304.71C263.676 302.259 265.216 299.544 266.34 296.65C267.4 293.43 267.08 290.14 266.47 286.91Z" fill="#37474F"/>
<path d="M266.37 163.13L258 272.84C250 235.29 228.29 163.13 228.29 163.13H266.37Z" fill="#37474F"/>
<path d="M250.561 389C250.561 389 260.501 437.39 260.501 437.43C260.631 447.18 260.921 455.72 261.501 460.12C261.501 460.12 261.501 460.17 261.501 460.2C261.711 461.86 261.951 462.92 262.261 463.2L262.311 463.26C265.241 465.18 343.161 466.39 345.901 465.52C348.641 464.65 346.361 456.79 343.371 454.33C340.381 451.87 310.741 438.07 310.741 438.07L300.321 389.7L250.561 389Z" fill="#F7A9A0"/>
<path d="M345.9 465.52C343.17 466.4 265.24 465.2 262.32 463.27C262.32 463.27 262.32 463.27 262.25 463.2C261.95 462.93 261.7 461.87 261.49 460.2C261.49 460.2 261.49 460.2 261.49 460.14C261.06 456.62 260.77 450.48 260.61 443.19C280.41 447.05 330.11 456.24 332.69 452.32C333.69 450.81 328.8 447.32 324.32 444.52C332.56 448.52 341.78 453.03 343.38 454.34C346.36 456.8 348.64 464.67 345.9 465.52Z" fill="#263238"/>
<path d="M273.83 163.14C272.04 170.718 270.721 178.399 269.88 186.14C268.88 195.78 267.71 204.3 266.43 205.36C264.97 206.56 257.7 211.23 255.25 212.73C255.25 212.73 277.93 281.5 283.79 304.43C292.27 337.66 312.6 437.37 312.6 437.37H258.44C258.44 437.37 242 342.41 234.77 310.77C228.6 283.64 206.08 207.25 206.08 207.25C197.48 186.09 211.38 163.14 211.38 163.14C211.38 163.14 273.84 163.1 273.83 163.14Z" fill="#263238"/>
<path d="M310.651 426.8C302.131 426.75 304.581 426.65 296.061 426.7C291.901 426.7 264.531 426.91 260.651 427.61C260.561 427.61 260.561 427.77 260.651 427.78C264.551 428.37 291.911 427.71 296.081 427.6C304.591 427.39 302.141 427.36 310.651 427.05C310.678 427.042 310.702 427.026 310.719 427.003C310.736 426.981 310.745 426.953 310.745 426.925C310.745 426.897 310.736 426.869 310.719 426.847C310.702 426.824 310.678 426.808 310.651 426.8Z" fill="#37474F"/>
<path d="M270.26 202.62C264.998 205.512 259.999 208.858 255.32 212.62C255.14 212.76 255.32 213.06 255.52 212.93C260.59 209.76 265.77 206.67 270.66 203.22C270.74 203.167 270.795 203.085 270.814 202.991C270.832 202.897 270.813 202.8 270.76 202.72C270.707 202.641 270.625 202.585 270.531 202.567C270.437 202.548 270.34 202.567 270.26 202.62Z" fill="#37474F"/>
<path d="M266.15 166.07C266.15 165.89 265.77 165.9 265.81 166.07C266.735 171.834 267.363 177.641 267.69 183.47C267.87 186.3 268.02 202.1 263 201.72C262.16 201.66 261.62 200.92 261.3 199.72C261.07 198.116 261.039 196.491 261.21 194.88C261.21 191.57 261.21 188.26 260.94 184.95C260.569 178.783 259.563 172.671 257.94 166.71C257.927 166.674 257.901 166.644 257.868 166.626C257.835 166.607 257.797 166.601 257.759 166.608C257.722 166.615 257.689 166.636 257.665 166.665C257.641 166.695 257.629 166.732 257.63 166.77C259.06 175.195 259.852 183.716 260 192.26C260 196.37 258.93 202.73 263.23 202.69C267.53 202.65 268.8 192.1 268.89 189.25C269.024 181.435 268.103 173.638 266.15 166.07Z" fill="#37474F"/>
<path d="M263.19 202.15C262.918 203.259 262.721 204.385 262.6 205.52C262.414 206.409 262.397 207.325 262.55 208.22C262.564 208.254 262.589 208.284 262.62 208.304C262.651 208.325 262.688 208.336 262.725 208.336C262.762 208.336 262.799 208.325 262.83 208.304C262.861 208.284 262.885 208.254 262.9 208.22C263.28 207.349 263.527 206.425 263.63 205.48C263.84 204.48 264.08 203.39 264.26 202.34C264.263 202.209 264.218 202.081 264.135 201.98C264.052 201.878 263.935 201.81 263.806 201.787C263.677 201.764 263.544 201.788 263.431 201.855C263.318 201.921 263.233 202.026 263.19 202.15Z" fill="#37474F"/>
<path d="M252.14 397C252 395.74 251.83 394.49 251.65 393.24C251.31 390.84 250.91 388.45 250.54 386.06C249.8 381.24 248.97 376.44 248.12 371.65C246.42 362.08 244.46 352.55 242.39 343.06C241.22 337.69 239.86 332.39 238.39 327.06C238.29 326.69 237.77 326.87 237.83 327.23C238.7 332.08 239.54 336.93 240.53 341.76C241.52 346.59 242.53 351.39 243.47 356.21C245.36 365.74 247.12 375.29 249.01 384.82C249.54 387.51 250.01 390.21 250.55 392.9C250.81 394.25 251.08 395.59 251.37 396.9C251.66 398.21 252.07 399.54 252.29 400.9C252.29 401.03 252.5 400.97 252.48 400.9C252.31 399.56 252.29 398.25 252.14 397Z" fill="#37474F"/>
<path d="M289.49 325C287.68 316 285.25 307.15 282.81 298.32C277.89 280.54 272.09 263.03 266.31 245.52C264.65 240.48 262.984 235.436 261.31 230.39C260.48 227.87 256.4 214.27 255.89 212.97C255.881 212.942 255.861 212.919 255.835 212.906C255.809 212.893 255.778 212.89 255.75 212.9C255.723 212.909 255.7 212.929 255.686 212.955C255.673 212.981 255.671 213.012 255.68 213.04C256.85 217.67 258.46 224.43 259.81 229.04C261.16 233.65 262.6 238.04 264.01 242.59C266.78 251.45 269.59 260.3 272.28 269.2C277.59 286.77 282.861 304.34 287.171 322.2C288.381 327.2 289.58 332.2 290.68 337.2C291.78 342.2 292.68 347.27 293.77 352.29C293.77 352.43 294.03 352.39 294.02 352.29C293.11 343.06 291.3 334 289.49 325Z" fill="#37474F"/>
<path d="M256 373.24C253.11 356.51 249.64 339.87 245.8 323.33C241.96 306.79 237.65 290.19 232.91 273.8C228.17 257.41 222.91 241.17 217.3 225.08C214.63 217.45 211.91 209.8 210.16 201.9C208.41 194 206.91 181.35 215.06 165.07C215.13 164.94 214.68 164.87 214.61 165C203.89 183.47 208.74 202.77 213.55 217.38C216.19 225.38 219 233.32 221.55 241.38C224.217 249.6 226.777 257.86 229.23 266.16C234.08 282.6 238.58 299.16 242.62 315.8C246.66 332.44 250.25 349.22 253.41 366.07C256.57 382.92 259.25 399.96 261.96 416.95C262.31 419.16 262.59 421.38 262.87 423.6C262.87 423.72 263.08 423.72 263.07 423.6C261.12 406.72 258.92 390 256 373.24Z" fill="#37474F"/>
<path d="M220.571 187.74C221.661 187.32 222.871 187.23 224.001 186.91C225.186 186.593 226.349 186.195 227.481 185.72C229.627 184.808 231.644 183.618 233.481 182.18C235.242 180.665 236.597 178.733 237.421 176.56C237.921 175.4 240.091 169.27 240.111 169.23C240.131 169.19 240.471 169.14 240.461 169.29C240.401 170.11 239.161 175.35 238.741 176.67C238.051 179.164 236.663 181.409 234.741 183.14C232.753 184.796 230.479 186.073 228.031 186.91C226.78 187.357 225.491 187.692 224.181 187.91C222.972 188.192 221.722 188.257 220.491 188.1C220.351 188.06 220.411 187.79 220.571 187.74Z" fill="#37474F"/>
<path d="M281.41 183.73C280.813 183.474 280.198 183.263 279.57 183.1C278.907 182.825 278.271 182.49 277.67 182.1C276.395 181.273 275.249 180.262 274.27 179.1C273.153 177.593 272.314 175.9 271.79 174.1C271.44 173.1 270.5 167.41 270.49 167.37C270.48 167.33 270.3 167.3 270.32 167.44C270.419 169.726 270.686 172.003 271.12 174.25C271.598 176.329 272.463 178.3 273.67 180.06C274.687 181.389 275.976 182.487 277.45 183.28C278.099 183.637 278.796 183.899 279.52 184.06C280.146 184.272 280.824 184.272 281.45 184.06C281.55 184 281.5 183.77 281.41 183.73Z" fill="#37474F"/>
<path d="M264.471 89.91C266.301 94.57 268.901 98.7999 270.351 103.63C271.772 108.069 272.189 112.77 271.571 117.39C268.981 134.29 246.971 144.39 231.511 139.18C224.121 136.67 217.691 130.67 215.721 122.98C213.321 113.55 218.351 104.49 221.411 95.8799C223.098 91.061 223.937 85.9857 223.891 80.8799C223.891 76.3999 223.621 71.8799 224.521 67.4299C225.171 64.2899 227.321 55.1299 238.931 51.4299C247.261 48.7999 255.691 53.3499 259.571 61.2699C264.091 70.4899 260.861 80.66 264.471 89.91Z" fill="#263238"/>
<path d="M224.781 91.2797C221.181 98.9897 216.451 106.87 215.071 115.38C213.921 122.43 215.821 130.06 221.961 134.26C221.961 134.26 222.071 134.26 222.021 134.18C215.571 129.18 214.771 120.55 216.581 113.12C218.431 105.51 222.891 98.8898 225.141 91.4398C225.152 91.3941 225.147 91.3459 225.126 91.3037C225.106 91.2614 225.071 91.2277 225.028 91.2086C224.985 91.1895 224.936 91.1862 224.891 91.1992C224.846 91.2122 224.807 91.2407 224.781 91.2797Z" fill="#263238"/>
<path d="M223.15 90.8397C220.43 100.95 212.1 108.91 211.57 119.67C211.57 119.8 211.76 119.83 211.77 119.67C212.47 108.93 221.77 101.3 223.35 90.8397C223.35 90.8132 223.34 90.7878 223.321 90.769C223.302 90.7503 223.277 90.7397 223.25 90.7397C223.224 90.7397 223.198 90.7503 223.18 90.769C223.161 90.7878 223.15 90.8132 223.15 90.8397Z" fill="#263238"/>
<path d="M265.05 89.7401C263.304 85.9941 262.234 81.9688 261.89 77.8501C261.89 77.6401 261.52 77.6201 261.51 77.8501C260.51 92.6901 277.51 103.85 273.01 119.17C273.01 119.28 273.14 119.35 273.18 119.24C275.35 112.91 273.66 106.57 270.82 100.73C269 97.0001 266.81 93.4901 265.05 89.7401Z" fill="#263238"/>
<path d="M261.61 75.6499C261.61 75.3599 261.16 75.4499 261.18 75.7199C261.584 81.2756 263.379 86.6403 266.4 91.3199C267.88 93.6399 269.69 95.7099 271.12 98.0499C272.69 100.62 273.9 103.37 275.21 106.05C275.215 106.061 275.223 106.07 275.232 106.076C275.242 106.083 275.254 106.086 275.265 106.086C275.277 106.086 275.288 106.083 275.298 106.076C275.308 106.07 275.316 106.061 275.32 106.05C273.61 100.94 270.93 96.8699 267.86 92.5199C264.405 87.5048 262.256 81.706 261.61 75.6499Z" fill="#263238"/>
<path d="M247.261 117C263.771 138.06 283.771 160.39 298.181 161.45C311.901 162.45 337.061 124.14 340.361 112.35C341.491 108.28 311.361 97.0798 308.361 100.46C302.731 106.85 293.861 125.27 291.731 125.23C289.601 125.19 269.281 112.84 251.131 102.65C240.101 96.4498 235.831 102.4 247.261 117Z" fill="#F7A9A0"/>
<path d="M333.88 119.22C333.88 119.22 342.99 110.22 348.67 103.99C351.84 100.54 356.75 94.1398 357.92 90.5298C359.66 85.1498 363.53 61.5298 357.82 60.4298C352.64 59.4298 351.9 80.2098 351.9 80.2098C351.9 80.2098 354.5 59.3498 348.06 59.3398C341.62 59.3298 343.9 82.8699 343.9 82.8699C343.9 82.8699 346.09 61.3798 339.44 62.4198C334.44 63.1998 335.29 84.6498 335.29 84.6498C335.29 84.6498 337.04 66.1598 331.84 66.7398C326.1 67.3898 325.65 87.2299 325.65 87.2299C320.927 88.5599 316.59 90.9975 312.998 94.3403C309.407 97.6831 306.665 101.835 305 106.45C304.45 107.82 333.88 119.22 333.88 119.22Z" fill="#F7A9A0"/>
<path d="M351.56 86.5C354.65 71.28 351.5 62.87 351.56 63.11C352.47 68.79 351.98 77.62 351.8 80.11C351.62 82.6 351.67 84.05 351.49 86.51C351.46 86.56 351.55 86.55 351.56 86.5Z" fill="#263238"/>
<path d="M342.55 87C344.08 80.9015 344.507 74.5787 343.81 68.33C343.81 68.09 343.68 68.17 343.67 68.41C343.53 71.55 342.76 83.88 342.48 87C342.47 87.06 342.54 87.06 342.55 87Z" fill="#263238"/>
<path d="M334.821 87.9999C335.908 83.2502 336.095 78.3385 335.371 73.5199C335.371 73.2799 335.211 73.3999 335.201 73.6499C335.111 78.4599 335.071 82.2499 334.661 87.9799C334.651 88.0499 334.811 88.0899 334.821 87.9999Z" fill="#263238"/>
<path d="M303.141 105.61L333.811 128.14C333.811 128.14 312.261 163.52 299.001 162.67C285.741 161.82 255.291 131.77 243.561 111.3C235.441 97.14 244.311 98.02 254.561 103.82C264.811 109.62 291.281 123.82 292.241 123.35C293.201 122.88 303.141 105.61 303.141 105.61Z" fill="#E093A0"/>
<g opacity="0.5">
<path d="M303.141 105.61L333.811 128.14C333.811 128.14 312.261 163.52 299.001 162.67C285.741 161.82 255.291 131.77 243.561 111.3C235.441 97.14 244.311 98.02 254.561 103.82C264.811 109.62 291.281 123.82 292.241 123.35C293.201 122.88 303.141 105.61 303.141 105.61Z" fill="white"/>
</g>
<path d="M308.94 158.49C305.42 161.19 301.94 162.86 298.94 162.67C285.62 161.82 255.23 131.77 243.5 111.3C237.02 99.9998 241.36 98.2998 248.57 100.99C266.39 117.64 293.56 143.22 308.94 158.49Z" fill="#E093A0"/>
<path d="M326.311 134.19C321.911 131.12 304.311 117.88 300.721 114.77C300.471 114.55 300.551 114.34 300.841 114.53C314.271 123.42 322.261 130.78 326.431 134.01C326.531 134.1 326.421 134.27 326.311 134.19Z" fill="#263238"/>
<path d="M205.63 165.07L275.32 163.48L267.87 142.87C269.423 140.129 270.358 137.081 270.609 133.94C270.859 130.8 270.419 127.642 269.32 124.69C267.13 118.8 258.49 110.46 253.19 105.15C240.26 92.2098 230.72 99.4598 227.82 103.36C216.74 118.24 205.63 165.07 205.63 165.07Z" fill="#E093A0"/>
<path opacity="0.5" d="M205.63 165.07L275.32 163.48L267.87 142.87C269.423 140.129 270.358 137.081 270.609 133.94C270.859 130.8 270.419 127.642 269.32 124.69C267.13 118.8 258.49 110.46 253.19 105.15C240.26 92.2098 230.72 99.4598 227.82 103.36C216.74 118.24 205.63 165.07 205.63 165.07Z" fill="white"/>
<path d="M247.74 142.42C250.666 142.017 253.617 141.833 256.57 141.87C258.04 141.87 259.5 142.01 260.96 142.15C261.69 142.22 262.42 142.26 263.15 142.3C263.914 142.363 264.683 142.337 265.44 142.22C265.5 142.22 265.52 142.3 265.44 142.32C264.745 142.516 264.036 142.663 263.32 142.76C262.623 142.841 261.921 142.868 261.22 142.84C259.73 142.84 258.22 142.72 256.75 142.68C253.75 142.6 250.75 142.52 247.75 142.68C247.62 142.67 247.6 142.43 247.74 142.42Z" fill="#263238"/>
<path d="M241.231 146.58C243.524 145.779 245.861 145.111 248.231 144.58C249.431 144.32 250.631 144.13 251.841 143.98C252.411 143.9 252.991 143.84 253.571 143.78C254.151 143.72 254.861 143.78 255.491 143.67C255.561 143.67 255.581 143.77 255.491 143.77C254.901 143.86 254.311 144.05 253.721 144.17L251.931 144.53C250.741 144.77 249.551 145.02 248.361 145.25C245.971 145.71 243.591 146.2 241.221 146.74C241.141 146.8 241.111 146.62 241.231 146.58Z" fill="#263238"/>
<path d="M224.58 109.74C208.9 136.8 187.5 192.74 183.27 201.63C180.39 207.63 211.91 223.54 213.27 219.16C214.98 213.55 234.8 147.37 236.27 115.1C236.87 100.15 229.6 101.09 224.58 109.74Z" fill="#F7A9A0"/>
<path d="M214.1 216.13C213.37 221.6 209.65 232.61 206.89 234.28C204.13 235.95 189.62 235.6 182.31 235.6C175 235.6 173.56 233.6 173.68 231.05C173.8 228.5 189.14 228.05 189.14 228.05C189.14 228.05 168.65 233.93 163.5 234.88C158.35 235.83 146.5 238.88 144.75 234.56C143.98 232.64 147.23 230.69 147.23 230.69C147.23 230.69 142.23 232.14 141.46 229.69C140.55 226.87 144.46 225.32 144.46 225.32C144.46 225.32 141.35 225.94 141.28 223.65C141.12 218.51 160.61 215.99 160.61 215.99C160.61 215.99 145.69 223.25 145.21 219.06C144.54 213.26 175.12 206.9 178.3 204.37C180.619 202.444 182.786 200.341 184.78 198.08L214.1 216.13Z" fill="#F7A9A0"/>
<path d="M173.791 232.32C173.741 231.963 173.778 231.6 173.898 231.261C174.018 230.922 174.218 230.616 174.481 230.37C175.01 229.888 175.615 229.496 176.271 229.21C177.623 228.63 179.025 228.175 180.461 227.85C183.341 227.12 186.291 226.6 189.231 225.85C186.2 225.801 183.176 226.137 180.231 226.85C178.725 227.2 177.275 227.755 175.921 228.5C175.225 228.886 174.616 229.41 174.131 230.04C173.882 230.358 173.72 230.736 173.66 231.135C173.601 231.535 173.646 231.943 173.791 232.32Z" fill="#263238"/>
<path d="M147.23 230.69C149.34 230.17 151.42 229.58 153.49 228.98C155.56 228.38 157.63 227.74 159.69 227.12L165.86 225.19C167.92 224.54 169.98 223.9 172.06 223.28C169.901 223.522 167.76 223.906 165.65 224.43C163.54 224.91 161.46 225.51 159.39 226.14C157.32 226.77 155.27 227.47 153.24 228.23C151.21 228.99 149.2 229.77 147.23 230.69Z" fill="#263238"/>
<path d="M167.111 218.17C165.124 218.295 163.148 218.565 161.201 218.98C159.245 219.372 157.312 219.869 155.411 220.47C153.51 221.062 151.644 221.76 149.821 222.56C147.988 223.347 146.214 224.263 144.511 225.3C146.401 224.65 148.231 223.92 150.111 223.3C151.991 222.68 153.841 222.03 155.721 221.45C157.601 220.87 159.491 220.3 161.381 219.75C163.271 219.2 165.191 218.69 167.111 218.17Z" fill="#263238"/>
<path d="M164.09 213.27C160.883 213.524 157.723 214.196 154.69 215.27C151.631 216.278 148.719 217.687 146.03 219.46C149.03 218.38 152.03 217.25 155.03 216.24C158.03 215.23 161 214.26 164.09 213.27Z" fill="#263238"/>
<path d="M181.42 200.21L216 217.1C216 217.1 234.05 145.48 236.28 120.38C238.51 95.2798 228.86 101.05 222.2 112.84C213.06 129 181.42 200.21 181.42 200.21Z" fill="#E093A0"/>
<path opacity="0.5" d="M181.42 200.21L216 217.1C216 217.1 234.05 145.48 236.28 120.38C238.51 95.2798 228.86 101.05 222.2 112.84C213.06 129 181.42 200.21 181.42 200.21Z" fill="white"/>
<path d="M215.15 208.32C210.44 206.41 191.47 197.9 187.5 195.78C187.23 195.63 187.25 195.42 187.56 195.54C201.79 200.92 210.7 206.03 215.22 208.13C215.33 208.19 215.27 208.37 215.15 208.32Z" fill="#263238"/>
<path d="M228 167.61C228.51 163.91 229.15 160.24 229.82 156.61C230.49 152.98 231.2 149.28 231.95 145.61C232.7 141.94 233.49 138.31 234.35 134.68L235.64 129.24C236.12 127.43 236.55 125.62 237.06 123.82C236.82 125.68 236.5 127.51 236.21 129.36L235.21 134.87C234.56 138.54 233.82 142.19 233.08 145.87C232.34 149.55 231.54 153.16 230.68 156.79C229.82 160.42 229 164 228 167.61Z" fill="#263238"/>
<path d="M235.13 133.31C235.395 132.358 235.768 131.439 236.24 130.57C236.686 129.687 237.233 128.858 237.87 128.1C237.603 129.054 237.235 129.976 236.77 130.85C236.317 131.729 235.767 132.554 235.13 133.31Z" fill="#263238"/>
<path d="M248.531 112.89C248.531 112.89 234.221 104.54 227.531 105.77L222.601 111.66C222.601 111.66 220.821 112.56 220.071 111.46C218.211 108.75 216.871 101.71 222.271 96.2098C227.271 91.2098 238.791 90.3298 246.701 91.2098C254.301 92.0498 258.971 95.7598 257.431 100.86C255.891 105.96 248.531 112.89 248.531 112.89Z" fill="#E093A0"/>
<path opacity="0.5" d="M248.531 112.89C248.531 112.89 234.221 104.54 227.531 105.77L222.601 111.66C222.601 111.66 220.821 112.56 220.071 111.46C218.211 108.75 216.871 101.71 222.271 96.2098C227.271 91.2098 238.791 90.3298 246.701 91.2098C254.301 92.0498 258.971 95.7598 257.431 100.86C255.891 105.96 248.531 112.89 248.531 112.89Z" fill="white"/>
<path d="M248.931 110.54C248.931 110.54 253.931 103.54 254.301 99.8502C254.671 96.1602 247.021 93.8502 242.231 93.1902C234.821 92.1902 230.051 93.3602 226.631 97.7502C223.211 102.14 248.931 110.54 248.931 110.54Z" fill="#E093A0"/>
<path d="M248.93 110.54C248.93 110.54 236.08 98 225.53 98.12L227.53 105.77C227.53 105.77 236.18 104.64 248.53 112.89L248.93 110.54Z" fill="#E093A0"/>
<path opacity="0.5" d="M248.93 110.54C248.93 110.54 236.08 98 225.53 98.12L227.53 105.77C227.53 105.77 236.18 104.64 248.53 112.89L248.93 110.54Z" fill="white"/>
<path d="M224.78 106.33C226.642 105.894 228.577 105.867 230.45 106.25C237.8 106.87 245.91 111.64 245.91 111.64L248.28 113.25L248.54 113.43L248.78 113.25C251.98 110.85 254.78 105.94 255.35 104.98C253.284 107.75 250.916 110.283 248.29 112.53H248.79L246.41 110.86C245.6 110.33 236.89 106.29 230.52 105.71C230.039 105.652 229.555 105.618 229.07 105.61C228.58 105.61 228.07 105.61 227.61 105.67C226.636 105.727 225.679 105.951 224.78 106.33Z" fill="#263238"/>
<path d="M222.62 111.66C223.567 110.792 224.452 109.86 225.27 108.87C226.098 107.888 226.859 106.853 227.55 105.77C225.68 107.532 224.025 109.509 222.62 111.66Z" fill="#263238"/>
<path d="M246 108.85C245.6 112.167 245.49 115.513 245.67 118.85C245.78 121.17 247.22 129.41 249.78 128.94C252.34 128.47 247.78 123.39 246.78 119.06C245.78 114.73 246.71 111.45 246.69 108.82L246 108.85Z" fill="#E093A0"/>
<path d="M252.34 108.25C253.804 110.909 255.035 113.689 256.02 116.56C256.72 118.56 258.31 126.03 256.02 126.56C253.73 127.09 255.81 121.18 255.21 117.16C254.61 113.14 252.67 110.69 251.79 108.45L252.34 108.25Z" fill="#E093A0"/>
<path d="M237.09 100.79C237.38 102.01 243.61 107.56 249.22 107.27C251.04 107.18 250.63 99.58 250.63 99.58L250.79 98.84L253.06 88.49L240.88 80.75L239.12 79.75C239.12 79.75 238.69 82.62 238.18 86.21C238.18 86.37 238.13 86.54 238.11 86.72C238.09 86.9 238.04 87.11 238.02 87.3C237.94 87.83 237.86 88.38 237.79 88.93C237.72 89.48 237.68 89.74 237.63 90.18C237.58 90.62 237.54 91.04 237.48 91.48C237.136 94.5707 237.006 97.6814 237.09 100.79Z" fill="#F7A9A0"/>
<path d="M238.181 86.18C239.238 89.0786 240.914 91.7123 243.092 93.8984C245.269 96.0845 247.896 97.7707 250.791 98.84L253.061 88.49L240.881 80.75L239.121 79.75C239.121 79.75 238.691 82.59 238.181 86.18Z" fill="#263238"/>
<path d="M266.001 70.7097C271.071 88.6097 260.921 93.7097 257.061 94.7097C253.561 95.7097 241.511 98.6197 234.611 81.3497C227.711 64.0797 234.441 56.0597 242.331 53.3497C250.221 50.6397 261.001 52.8197 266.001 70.7097Z" fill="#F7A9A0"/>
<path d="M260.46 70.0002C260.03 70.0002 259.62 70.0002 259.18 70.0002C258.727 70.0622 258.266 69.9706 257.87 69.7402C257.757 69.6468 257.68 69.5173 257.65 69.3735C257.621 69.2297 257.642 69.0802 257.71 68.9502C257.875 68.7102 258.101 68.5187 258.365 68.3956C258.629 68.2725 258.921 68.2223 259.21 68.2502C259.809 68.2127 260.4 68.3979 260.87 68.7702C260.971 68.8628 261.044 68.9827 261.078 69.1155C261.112 69.2482 261.108 69.388 261.064 69.5181C261.021 69.6482 260.941 69.7629 260.834 69.8485C260.727 69.934 260.597 69.9867 260.46 70.0002Z" fill="#263238"/>
<path d="M247.691 72.4799C248.093 72.3271 248.486 72.1535 248.871 71.9599C249.309 71.8371 249.696 71.5736 249.971 71.2099C250.034 71.078 250.051 70.9288 250.021 70.7858C249.99 70.6428 249.912 70.5141 249.801 70.4199C249.549 70.2722 249.262 70.1943 248.971 70.1943C248.679 70.1943 248.392 70.2722 248.141 70.4199C247.575 70.6246 247.107 71.0353 246.831 71.5699C246.79 71.6918 246.783 71.8225 246.811 71.948C246.838 72.0735 246.9 72.1891 246.988 72.2825C247.076 72.3759 247.188 72.4436 247.312 72.4784C247.436 72.5131 247.567 72.5137 247.691 72.4799Z" fill="#263238"/>
<path d="M251.111 75.4199C251.111 75.4199 251.03 75.4999 251.04 75.5499C251.37 76.7799 251.541 78.2299 250.521 78.8999C250.521 78.8999 250.521 78.9799 250.521 78.9699C251.861 78.4599 251.611 76.5299 251.111 75.4199Z" fill="#263238"/>
<path d="M249.71 74.3898C247.71 74.6998 248.46 78.7198 250.33 78.3898C252.2 78.0598 251.4 74.1298 249.71 74.3898Z" fill="#263238"/>
<path d="M249 74.7497C248.69 75.0497 248.43 75.5197 248 75.6397C247.57 75.7597 247.07 75.4297 246.67 75.0897C246.67 75.0897 246.61 75.0897 246.61 75.1497C246.75 75.9197 247.2 76.6497 248.05 76.6097C248.9 76.5697 249.23 75.7797 249.27 74.9697C249.25 74.8197 249.08 74.6397 249 74.7497Z" fill="#263238"/>
<path d="M258.411 73.0601C258.411 73.0601 258.521 73.0601 258.531 73.1601C258.721 74.4101 259.151 75.8101 260.351 76.0201V76.0901C259.001 76.1501 258.391 74.2801 258.411 73.0601Z" fill="#263238"/>
<path d="M259.29 71.5599C261.29 71.0399 262.16 75.0199 260.29 75.5599C258.42 76.0999 257.63 71.9999 259.29 71.5599Z" fill="#263238"/>
<path d="M260.18 71.6298C260.54 71.7698 260.94 72.0898 261.32 72.0298C261.7 71.9698 261.99 71.4498 262.17 71.0298C262.17 71.0298 262.23 71.0298 262.24 71.0298C262.388 71.3655 262.411 71.7427 262.307 72.0942C262.202 72.4457 261.977 72.7489 261.67 72.9498C261.03 73.2298 260.39 72.6898 260.04 71.9498C260 71.8198 260 71.5798 260.18 71.6298Z" fill="#263238"/>
<path d="M254.001 85.5C254.341 85.75 254.701 86.11 255.161 86.08C255.625 86.0035 256.068 85.8297 256.461 85.57C256.461 85.57 256.551 85.57 256.531 85.62C256.387 85.892 256.173 86.1207 255.911 86.2824C255.649 86.4441 255.348 86.533 255.041 86.54C254.771 86.5072 254.517 86.3944 254.312 86.2162C254.107 86.0379 253.961 85.8024 253.891 85.54C253.891 85.5 254.001 85.46 254.001 85.5Z" fill="#263238"/>
<path d="M258.301 79.9997C258.301 79.9997 258.931 81.7997 259.111 82.6797C259.111 82.7597 258.931 82.8397 258.631 82.9197C257.908 83.2077 257.121 83.292 256.354 83.1632C255.587 83.0345 254.87 82.6978 254.281 82.1897C254.201 82.1197 254.281 82.0097 254.381 82.0397C255.646 82.5698 257.049 82.6785 258.381 82.3497C258.381 82.0997 257.191 79.3497 257.321 79.2697C258.011 79.1758 258.711 79.1758 259.401 79.2697C258.181 75.4797 256.401 71.9197 255.221 68.1297C255.221 67.9897 255.371 67.9097 255.431 68.0297C257.488 71.7859 259.163 75.739 260.431 79.8297C260.611 80.3197 258.681 79.9997 258.301 79.9997Z" fill="#263238"/>
<path d="M258.48 82.5601C258.142 83.3727 257.602 84.0853 256.91 84.6301C256.523 84.9189 256.054 85.0765 255.57 85.0801C254.57 85.0801 254.26 84.1901 254.23 83.3801C254.222 82.9431 254.266 82.5068 254.36 82.0801C255.646 82.6787 257.091 82.847 258.48 82.5601Z" fill="#263238"/>
<path d="M256.91 84.6301C256.523 84.9189 256.054 85.0766 255.57 85.0801C254.57 85.0801 254.26 84.1901 254.23 83.3801C254.753 83.2593 255.3 83.3168 255.786 83.5433C256.272 83.7699 256.667 84.1524 256.91 84.6301Z" fill="#FF9ABB"/>
<path d="M236.321 82.13C240.111 81.07 237.971 72.33 237.971 72.33C237.971 72.33 239.971 70.89 241.471 65.83C241.471 65.83 240.701 70.07 238.591 72.29C238.241 72.67 250.931 67.89 249.511 57.58C249.511 57.58 254.781 65.36 264.631 65.91C264.941 65.91 261.381 57.17 258.901 55.57C257.476 54.6328 255.937 53.8833 254.321 53.34C249.623 51.4569 244.375 51.4892 239.701 53.43C232.001 56.72 229.001 66.52 229.301 70.14C229.911 77.24 234.521 82.63 236.321 82.13Z" fill="#263238"/>
<path d="M239.06 72.3998C246.06 70.1998 250.55 64.1598 249.21 56.7398C249.21 56.7019 249.223 56.6651 249.246 56.6352C249.269 56.6053 249.302 56.5841 249.339 56.5749C249.375 56.5657 249.414 56.5691 249.449 56.5845C249.484 56.5998 249.512 56.6264 249.53 56.6598C252.45 63.7698 245.91 71.2898 239.03 72.5398C238.87 72.5698 238.9 72.4498 239.06 72.3998Z" fill="#263238"/>
<path d="M249.32 57.2998H249.39C252.21 60.5498 255.81 66.6798 261.05 65.0098C261.064 65.0046 261.079 65.0021 261.094 65.0025C261.108 65.0029 261.123 65.0062 261.136 65.0123C261.15 65.0183 261.162 65.0269 261.172 65.0377C261.182 65.0484 261.19 65.061 261.195 65.0748C261.201 65.0886 261.203 65.1033 261.203 65.118C261.202 65.1328 261.199 65.1473 261.193 65.1608C261.187 65.1742 261.178 65.1864 261.167 65.1965C261.157 65.2066 261.144 65.2146 261.13 65.2198C256.25 67.2398 250.93 61.3898 249.32 57.2998Z" fill="#263238"/>
<path d="M238 80.2899C238 80.2899 232.92 75.3499 230.6 77.2899C228.28 79.2299 232.87 86.8999 236.13 87.4399C236.54 87.5351 236.964 87.5472 237.378 87.4753C237.793 87.4035 238.188 87.2493 238.542 87.0217C238.895 86.7941 239.199 86.4979 239.436 86.1506C239.673 85.8033 239.838 85.412 239.92 84.9999L238 80.2899Z" fill="#F7A9A0"/>
<path d="M231.94 79.4397C231.89 79.4397 231.94 79.5197 231.94 79.5197C234.24 79.9797 235.74 81.7397 236.94 83.6397C236.778 83.448 236.576 83.294 236.348 83.1884C236.12 83.0827 235.871 83.028 235.62 83.028C235.369 83.028 235.121 83.0827 234.893 83.1884C234.665 83.294 234.463 83.448 234.3 83.6397C234.3 83.6397 234.3 83.7697 234.38 83.7397C234.734 83.5571 235.134 83.4843 235.53 83.5307C235.925 83.577 236.298 83.7403 236.6 83.9997C237.093 84.4539 237.538 84.9564 237.93 85.4997C238.06 85.6697 238.39 85.4997 238.27 85.2997C237.75 82.5497 234.91 79.1497 231.94 79.4397Z" fill="#263238"/>
</svg>
