<svg width="81" height="53" viewBox="0 0 81 53" fill="none" xmlns="http://www.w3.org/2000/svg">
<path d="M57.4111 17.2575C57.4103 17.0089 57.4045 16.7617 57.3934 16.5156V2.48839L53.5154 6.36635C50.3416 2.48138 45.5133 0 40.1051 0C34.4771 0 29.4771 2.68639 26.3164 6.8467L32.6728 13.27C33.2958 12.1179 34.1807 11.1284 35.2477 10.3811C36.3575 9.51506 37.9298 8.80699 40.1049 8.80699C40.3677 8.80699 40.5705 8.83769 40.7195 8.89554C43.4145 9.10825 45.7505 10.5955 47.1259 12.7542L42.6265 17.2536C48.3256 17.2312 54.7637 17.2181 57.4106 17.2565" fill="#1C3AA9"/>
<path d="M40.0036 0.000488281C39.755 0.00130128 39.5078 0.00708801 39.2617 0.018198H25.2345L29.1124 3.89615C25.2275 7.07004 22.7461 11.8983 22.7461 17.3065C22.7461 22.9345 25.4325 27.9345 29.5928 31.0952L36.0161 24.7387C34.864 24.1158 33.8745 23.2309 33.1272 22.1639C32.2612 21.0541 31.5531 19.4817 31.5531 17.3067C31.5531 17.0439 31.5838 16.8411 31.6416 16.6921C31.8543 13.9971 33.3416 11.6611 35.5003 10.2857L39.9997 14.7851C39.9773 9.08604 39.9642 2.64788 40.0026 0.000980377" fill="#4285F4"/>
<path d="M22.7471 17.3062C22.7479 17.5547 22.7536 17.8019 22.7648 18.048V32.0752L26.6427 28.1973C29.8166 32.0822 34.6449 34.5636 40.053 34.5636C45.6811 34.5636 50.6811 31.8772 53.8418 27.7169L47.4853 21.2936C46.8624 22.4457 45.9774 23.4352 44.9104 24.1826C43.8007 25.0486 42.2283 25.7566 40.0532 25.7566C39.7905 25.7566 39.5877 25.7259 39.4386 25.6681C36.7437 25.4554 34.4077 23.9681 33.0323 21.8094L37.5317 17.31C31.8326 17.3324 25.3945 17.3455 22.7476 17.3071" fill="#ABABAB"/>
<path d="M17.2255 39.6193C16.5757 39.6193 15.9931 39.7425 15.4776 39.989C14.9622 40.2299 14.5253 40.5745 14.1667 41.0226C13.8138 41.4708 13.5421 42.0142 13.3516 42.6528C13.1667 43.2859 13.0743 43.9945 13.0743 44.7788V47.0393C13.0743 47.8292 13.1667 48.5407 13.3516 49.1737C13.542 49.8068 13.8109 50.3474 14.1583 50.7956C14.5057 51.2437 14.9258 51.5882 15.4188 51.8292C15.9117 52.0701 16.4664 52.1905 17.0826 52.1905C17.7157 52.1905 18.2703 52.0981 18.7465 51.9132C19.2283 51.7283 19.6316 51.4622 19.9566 51.1149C20.2815 50.762 20.5308 50.3362 20.7045 49.8376C20.8837 49.339 20.9902 48.7732 21.0238 48.1401H19.4692C19.4299 48.6275 19.3627 49.0449 19.2675 49.3922C19.1722 49.7339 19.0322 50.0168 18.8473 50.2409C18.668 50.4594 18.4328 50.6219 18.1414 50.7283C17.8557 50.8292 17.5028 50.8796 17.0826 50.8796C16.6344 50.8796 16.2535 50.7815 15.9398 50.5855C15.6261 50.3838 15.3712 50.1093 15.1751 49.7619C14.9846 49.4146 14.8446 49.0084 14.7549 48.5435C14.6709 48.0785 14.6289 47.5771 14.6289 47.0393V44.762C14.6289 44.185 14.6793 43.6612 14.7802 43.1906C14.8866 42.72 15.0463 42.3195 15.2591 41.9889C15.472 41.6584 15.7409 41.4035 16.0659 41.2242C16.3908 41.0393 16.7774 40.9469 17.2255 40.9469C17.6009 40.9469 17.923 41.0029 18.1919 41.115C18.4608 41.2214 18.6849 41.3895 18.8641 41.6192C19.0434 41.8433 19.1806 42.129 19.2759 42.4763C19.3711 42.8236 19.4355 43.2382 19.4691 43.72H21.0238C20.9958 43.0589 20.8921 42.4735 20.7129 41.9637C20.5336 41.4539 20.2843 41.0253 19.965 40.6779C19.6456 40.3306 19.2563 40.0673 18.7969 39.8881C18.3432 39.7088 17.8194 39.6193 17.2255 39.6193ZM55.1749 39.6193C54.5251 39.6193 53.9424 39.7425 53.427 39.989C52.9116 40.2299 52.4746 40.5745 52.1161 41.0226C51.7632 41.4708 51.4914 42.0142 51.301 42.6528C51.1161 43.2859 51.0237 43.9945 51.0237 44.7788V47.0393C51.0237 47.8292 51.1161 48.5407 51.301 49.1737C51.4914 49.8068 51.7603 50.3474 52.1077 50.7956C52.455 51.2437 52.8752 51.5882 53.3682 51.8292C53.8611 52.0701 54.4157 52.1905 55.032 52.1905C55.6651 52.1905 56.2196 52.0981 56.6959 51.9132C57.1777 51.7283 57.581 51.4622 57.906 51.1149C58.2309 50.762 58.4802 50.3362 58.6539 49.8376C58.8331 49.339 58.9396 48.7732 58.9732 48.1401H57.4186C57.3794 48.6275 57.3122 49.0449 57.2169 49.3922C57.1217 49.7339 56.9816 50.0168 56.7968 50.2409C56.6175 50.4594 56.3822 50.6219 56.0909 50.7283C55.8052 50.8292 55.4522 50.8796 55.0321 50.8796C54.5839 50.8796 54.2029 50.7815 53.8892 50.5855C53.5755 50.3838 53.3206 50.1093 53.1245 49.7619C52.9341 49.4146 52.794 49.0084 52.7044 48.5434C52.6204 48.0785 52.5783 47.5771 52.5783 47.0393V44.762C52.5783 44.185 52.6288 43.6611 52.7296 43.1906C52.8361 42.72 52.9957 42.3195 53.2086 41.9889C53.4215 41.6584 53.6904 41.4035 54.0153 41.2242C54.3402 41.0393 54.7268 40.9469 55.1749 40.9469C55.5502 40.9469 55.8723 41.0029 56.1413 41.115C56.4102 41.2214 56.6342 41.3895 56.8135 41.6192C56.9928 41.8432 57.13 42.129 57.2253 42.4763C57.3205 42.8236 57.3849 43.2382 57.4185 43.7199H58.9731C58.9451 43.0589 58.8415 42.4735 58.6622 41.9636C58.4829 41.4538 58.2336 41.0253 57.9143 40.6779C57.595 40.3306 57.2056 40.0673 56.7463 39.888C56.2925 39.7088 55.7688 39.6193 55.1749 39.6193ZM26.083 39.7874L22.1419 52.0224H23.7217L24.6713 48.8291H28.8057L29.7721 52.0224H31.3519L27.4024 39.7874H26.083ZM33.0155 39.7874V52.0224H34.5533V47.2325H36.9146C37.5028 47.2325 38.0238 47.1513 38.4776 46.9888C38.9314 46.8207 39.3123 46.5799 39.6204 46.2661C39.9342 45.9524 40.1695 45.5659 40.3263 45.1065C40.4887 44.6415 40.57 44.1149 40.57 43.5267C40.57 42.9832 40.4888 42.4847 40.3263 42.0309C40.1694 41.5715 39.9369 41.1765 39.6288 40.846C39.3207 40.5099 38.937 40.2494 38.4776 40.0645C38.0238 39.8796 37.5029 39.7872 36.9146 39.7872L33.0155 39.7874ZM41.7464 39.7874V41.1151H44.9565V52.0224H46.4942V41.1151H49.7127V39.7874H41.7464ZM61.0487 39.7874V52.0224H62.5865V46.367H67.5108V52.0224H69.057V39.7874H67.5108V45.0478H62.5865V39.7874H61.0487ZM74.8888 39.7874L70.9477 52.0224H72.5275L73.4771 48.8291H77.6115L78.5779 52.0224H80.1577L76.2081 39.7874H74.8888ZM34.5531 41.1151H36.9145C37.2898 41.1151 37.6091 41.1822 37.8724 41.3167C38.1413 41.4512 38.3598 41.6305 38.5279 41.8545C38.7015 42.0786 38.8276 42.3391 38.906 42.636C38.99 42.9273 39.0321 43.2299 39.0321 43.5436C39.0321 43.8909 38.9901 44.2103 38.906 44.5016C38.8276 44.7873 38.7015 45.0366 38.5279 45.2495C38.3598 45.4567 38.1413 45.6192 37.8724 45.7368C37.6091 45.8545 37.2898 45.9133 36.9145 45.9133H34.5531V41.1151ZM26.7383 41.9386L28.4106 47.5015H25.0745L26.7383 41.9386ZM75.5441 41.9386L77.2164 47.5015H73.8803L75.5441 41.9386ZM3.15959 42.7621C2.77304 42.7621 2.43969 42.8602 2.15958 43.0562C1.88508 43.2523 1.65539 43.5184 1.47054 43.8545L1.44534 42.9302H0V52.0224H1.48739V45.5181C1.62744 45.1316 1.82632 44.8263 2.08401 44.6022C2.34732 44.3781 2.68065 44.266 3.08403 44.266C3.21287 44.266 3.32772 44.2717 3.42856 44.2828C3.52939 44.2885 3.63863 44.3024 3.75628 44.3248L3.74798 42.8795C3.72557 42.8682 3.68915 42.857 3.63873 42.8458C3.59392 42.829 3.54349 42.815 3.48747 42.8038C3.43145 42.7926 3.37262 42.7842 3.311 42.7786C3.25498 42.7673 3.20442 42.7621 3.15959 42.7621ZM8.15952 42.7621C7.72815 42.7621 7.31079 42.8378 6.90745 42.989C6.5041 43.1403 6.14556 43.3896 5.83187 43.7369C5.52375 44.0786 5.27445 44.5268 5.08397 45.0814C4.8935 45.6304 4.79826 46.3055 4.79826 47.1066V48.1318C4.79826 48.8265 4.87949 49.4287 5.04196 49.9385C5.20442 50.4483 5.43691 50.8713 5.7394 51.2074C6.04752 51.538 6.42005 51.7845 6.85704 51.9469C7.29401 52.1094 7.78421 52.1906 8.32763 52.1906C8.71979 52.1906 9.06993 52.1514 9.37803 52.073C9.69175 51.9946 9.96906 51.8937 10.21 51.7705C10.4509 51.6416 10.6581 51.496 10.8318 51.3335C11.0055 51.171 11.1539 51.003 11.2772 50.8293L10.5041 49.8881C10.3808 50.0394 10.2492 50.1795 10.1091 50.3083C9.96908 50.4315 9.81502 50.5408 9.64696 50.636C9.47889 50.7257 9.29402 50.7957 9.09234 50.8461C8.89067 50.8965 8.66377 50.9217 8.41169 50.9217C7.72265 50.9217 7.19322 50.7005 6.82347 50.2579C6.45933 49.8153 6.27726 49.1067 6.27726 48.1318V47.9218H11.3528V47.0562C11.3528 46.3616 11.294 45.7481 11.1764 45.2159C11.0587 44.6837 10.871 44.2355 10.6133 43.8714C10.3556 43.5073 10.0251 43.2327 9.62173 43.0479C9.21837 42.8574 8.731 42.7621 8.15952 42.7621ZM8.15952 44.0395C8.48444 44.0395 8.75335 44.0982 8.96626 44.2159C9.17914 44.3336 9.3472 44.4988 9.47046 44.7117C9.5993 44.9246 9.69174 45.1795 9.74776 45.4764C9.80938 45.7677 9.8486 46.0898 9.8654 46.4428V46.6444H6.28562C6.30803 46.1346 6.36965 45.7117 6.47049 45.3755C6.57133 45.0393 6.70298 44.7733 6.86544 44.5772C7.03351 44.3756 7.22678 44.2355 7.44527 44.1571C7.66375 44.0786 7.90179 44.0395 8.15952 44.0395Z" fill="#A6A6A6"/>
</svg>
