<svg width="180" height="53" viewBox="0 0 180 53" fill="none" xmlns="http://www.w3.org/2000/svg">
<mask id="mask0_111_110" style="mask-type:luminance" maskUnits="userSpaceOnUse" x="0" y="0" width="180" height="53">
<path d="M180 0H0V52.2338H180V0Z" fill="white"/>
</mask>
<g mask="url(#mask0_111_110)">
<path d="M82.5854 44.2833C82.2402 44.6815 81.8227 45.0105 81.3549 45.253C80.8701 45.508 80.33 45.6398 79.7823 45.6369C79.2825 45.6392 78.7882 45.5338 78.3327 45.328C77.887 45.1271 77.4839 44.8427 77.1453 44.49C76.8041 44.1297 76.5329 43.7091 76.3455 43.2497C75.95 42.288 75.95 41.209 76.3455 40.2473C76.5341 39.7914 76.8052 39.3742 77.1453 39.0167C77.4846 38.6649 77.8875 38.3805 78.3327 38.1788C78.7885 37.9741 79.2827 37.8688 79.7823 37.8699C80.2483 37.8683 80.7095 37.9647 81.1358 38.1529C81.5407 38.334 81.9143 38.5778 82.2432 38.8752L81.6207 39.6738C81.3839 39.4314 81.1097 39.2287 80.8085 39.0734C80.49 38.9108 80.1373 38.8264 79.7797 38.8273C79.419 38.8258 79.0628 38.9062 78.7376 39.0623C78.4178 39.2173 78.1313 39.4334 77.8946 39.6984C77.6529 39.9746 77.4595 40.2895 77.3225 40.6299C77.0419 41.3548 77.0419 42.1582 77.3225 42.883C77.4592 43.221 77.6527 43.5331 77.8946 43.8059C78.1317 44.0679 78.4182 44.2808 78.7376 44.4322C79.0638 44.5847 79.4197 44.6628 79.7797 44.6611C80.1903 44.6629 80.5944 44.5582 80.9524 44.3572C81.299 44.1609 81.6017 43.8959 81.8421 43.5782L82.5854 44.2833Z" fill="#413C3C"/>
<path d="M98.1943 40.2376C98.003 39.7813 97.7294 39.3642 97.3871 39.0071C97.048 38.6544 96.6445 38.3699 96.1984 38.1691C95.7415 37.9657 95.2471 37.8606 94.747 37.8606C94.2469 37.8606 93.7524 37.9657 93.2956 38.1691C92.8484 38.3705 92.4434 38.6548 92.102 39.0071C91.7585 39.3633 91.4847 39.7806 91.2948 40.2376C90.9043 41.2007 90.9043 42.2781 91.2948 43.2412C91.4824 43.6977 91.7537 44.115 92.0946 44.4718C92.4345 44.8246 92.8388 45.109 93.2858 45.3097C93.7417 45.5142 94.2357 45.6199 94.7353 45.6199C95.2349 45.6199 95.7289 45.5142 96.1848 45.3097C96.6329 45.1085 97.0388 44.8242 97.3809 44.4718C97.7261 44.1159 98.0015 43.6985 98.193 43.2412C98.3906 42.7652 98.4924 42.2549 98.4926 41.7395C98.4928 41.2241 98.3914 40.7138 98.1943 40.2376ZM97.2 42.8622C97.0701 43.2018 96.8777 43.514 96.6327 43.7827C96.3943 44.0415 96.107 44.2506 95.7874 44.3979C95.4582 44.5445 95.1018 44.6202 94.7415 44.6202C94.3811 44.6202 94.0247 44.5445 93.6955 44.3979C93.3759 44.2506 93.0886 44.0415 92.8502 43.7827C92.6054 43.513 92.4115 43.2011 92.278 42.8622C91.9925 42.1409 91.9925 41.3379 92.278 40.6166C92.4121 40.2799 92.606 39.9701 92.8502 39.7023C93.0886 39.4435 93.3759 39.2344 93.6955 39.087C94.0247 38.9405 94.3811 38.8647 94.7415 38.8647C95.1018 38.8647 95.4582 38.9405 95.7874 39.087C96.107 39.2344 96.3943 39.4435 96.6327 39.7023C96.8766 39.9695 97.0689 40.2795 97.2 40.6166C97.3386 40.9744 97.4083 41.3551 97.4055 41.7388C97.4076 42.1241 97.3375 42.5064 97.1988 42.8659L97.2 42.8622Z" fill="#413C3C"/>
<path d="M112.417 37.9636V42.861C112.419 43.2322 112.345 43.5998 112.2 43.9414C112.061 44.2696 111.86 44.5685 111.61 44.8225C111.36 45.0758 111.063 45.2781 110.736 45.418C110.397 45.5626 110.032 45.6371 109.663 45.6371C109.294 45.6371 108.928 45.5626 108.589 45.418C108.262 45.2781 107.965 45.0758 107.715 44.8225C107.466 44.5678 107.265 44.2691 107.125 43.9414C106.98 43.5998 106.906 43.2322 106.908 42.861V37.9636H107.972V42.861C107.972 43.0899 108.017 43.3165 108.104 43.528C108.19 43.7361 108.312 43.9273 108.465 44.0928C108.618 44.2566 108.802 44.3891 109.006 44.4829C109.214 44.5777 109.441 44.626 109.669 44.6244C109.896 44.6258 110.12 44.5775 110.326 44.4829C110.528 44.3879 110.709 44.2555 110.86 44.0928C111.015 43.9285 111.137 43.737 111.221 43.528C111.308 43.3165 111.353 43.0899 111.353 42.861V37.9636H112.417Z" fill="#413C3C"/>
<path d="M126.046 37.9636V38.9087H123.968V45.5288H122.901V38.9087H120.836V37.9636H126.046Z" fill="#413C3C"/>
<path d="M139.971 37.9636V42.861C139.973 43.2322 139.899 43.5998 139.754 43.9414C139.612 44.2692 139.411 44.5679 139.161 44.8225C138.912 45.0762 138.616 45.2786 138.29 45.418C137.95 45.5626 137.585 45.6371 137.216 45.6371C136.847 45.6371 136.482 45.5626 136.142 45.418C135.815 45.2781 135.519 45.0758 135.269 44.8225C135.019 44.5681 134.818 44.2693 134.678 43.9414C134.532 43.6 134.458 43.2323 134.459 42.861V37.9636H135.526V42.861C135.525 43.0899 135.57 43.3165 135.658 43.528C135.742 43.7364 135.863 43.9278 136.016 44.0928C136.17 44.256 136.353 44.3884 136.557 44.4829C136.765 44.5772 136.992 44.6254 137.22 44.6244C137.447 44.6262 137.672 44.5779 137.877 44.4829C138.08 44.3888 138.262 44.2563 138.414 44.0928C138.567 43.9273 138.689 43.7361 138.775 43.528C138.862 43.3165 138.907 43.0899 138.906 42.861V37.9636H139.971Z" fill="#413C3C"/>
<path d="M152.016 42.1535L152.06 42.14C152.283 42.0769 152.494 41.9789 152.686 41.8496C152.873 41.7216 153.039 41.566 153.178 41.3881C153.317 41.2088 153.427 41.0085 153.503 40.7949C153.582 40.5694 153.621 40.3323 153.619 40.0936C153.621 39.8079 153.563 39.525 153.449 39.263C153.339 39.011 153.183 38.7822 152.988 38.5887C152.788 38.3959 152.555 38.2411 152.3 38.1321C152.033 38.0209 151.746 37.9641 151.457 37.9649H148.389V45.5288H149.454V42.2359H150.838L150.845 42.2482L153.237 45.5288H154.565L152.016 42.1535ZM151.457 41.2454L149.454 41.2565V38.9H151.457C151.609 38.8998 151.76 38.9311 151.9 38.9922C152.035 39.054 152.157 39.1408 152.26 39.2482C152.36 39.3568 152.44 39.4818 152.498 39.6174C152.557 39.7609 152.587 39.915 152.585 40.0703C152.587 40.2275 152.557 40.3835 152.498 40.5292C152.44 40.6667 152.356 40.792 152.252 40.8984C152.15 41.0035 152.028 41.0872 151.894 41.1445C151.757 41.209 151.608 41.2435 151.457 41.2454Z" fill="#413C3C"/>
<path d="M163.105 38.9087V41.051H166.258V42.0305H163.105V44.5493H166.648V45.5288H162.041V37.9636H166.648V38.9087H163.105Z" fill="#413C3C"/>
<path d="M180.001 9.96226V6.61035H170.702H167.35V27.0516H170.403H179.996V23.6997H170.702V18.0073H178.948V14.6566H170.702V9.96226H180.001Z" fill="#413C3C"/>
<path d="M162.114 6.61035H158.764V27.0503H162.114V6.61035Z" fill="#413C3C"/>
<path d="M153.238 25.2759C152.706 25.2896 152.18 25.1694 151.707 24.9265C151.242 24.6641 150.83 24.3168 150.493 23.9027C150.074 23.3966 149.709 22.8491 149.402 22.2686C149.078 21.6705 148.715 20.9618 148.295 20.1078C148.083 19.6857 147.852 19.2341 147.571 18.6952C147.398 18.3629 147.212 18.0405 147.024 17.7366L146.872 17.4905L147.068 17.2739C147.266 17.0574 147.463 16.8273 147.656 16.5885C147.963 16.2034 148.272 15.8072 148.558 15.4097C149.498 14.0742 150.255 12.6197 150.811 11.0845C151.319 9.70132 151.585 8.24118 151.598 6.76787V6.60791H148.195V6.76787C148.178 7.88967 147.973 9.00067 147.589 10.0545C147.156 11.2663 146.552 12.4103 145.797 13.452C145.578 13.7362 145.375 14.002 145.173 14.2543L145.135 14.3059C145.091 14.3576 145.05 14.4118 145.012 14.4659L144.766 14.7588L144.469 14.5127C144.403 14.4561 144.333 14.4019 144.266 14.3502C144.014 14.155 143.751 13.9726 143.48 13.8039C143.252 13.6533 143.013 13.5208 142.765 13.4077C141.757 12.8946 141.116 12.8269 141.116 12.8269V6.61037H137.778V12.6915C137.778 12.6915 137.69 12.7124 137.543 12.7617C137.505 12.7722 137.468 12.7849 137.432 12.7998L137.334 12.8367C137.178 12.8971 137.027 12.9683 136.881 13.0496L136.758 13.1222C136.717 13.148 136.673 13.1714 136.635 13.1997C136.114 13.5475 135.678 14.0085 135.36 14.5481C135.042 15.0878 134.849 15.6923 134.797 16.3166C134.784 16.4581 134.777 16.5996 134.777 16.7436C134.777 16.8519 134.777 16.9577 134.789 17.0586C134.791 17.1241 134.797 17.1894 134.807 17.2542C134.873 17.93 135.102 18.5794 135.477 19.1457C135.851 19.712 136.358 20.178 136.955 20.5028C136.967 20.507 136.979 20.5128 136.99 20.52C137.049 20.5483 137.113 20.5766 137.169 20.6025C137.289 20.6563 137.412 20.7039 137.538 20.7452L137.577 20.7575C137.618 20.771 137.657 20.7809 137.7 20.7932C137.743 20.8055 137.749 20.8067 137.775 20.8116V27.0516H141.114V20.7957C141.936 20.7074 142.737 20.4789 143.482 20.1201L143.518 20.1053C143.541 20.092 143.564 20.0801 143.588 20.0697C143.823 19.9505 144.051 19.8187 144.271 19.6747L144.462 20.0327C144.544 20.1853 144.624 20.3367 144.708 20.4868C144.896 20.8559 145.076 21.2312 145.247 21.6127L145.257 21.6361C145.643 22.4101 146.062 23.2111 146.487 24.0085C146.925 24.8255 147.46 25.5869 148.08 26.2763C148.703 26.9642 149.441 27.5392 150.26 27.9757C151.101 28.4236 152.106 28.65 153.238 28.65H153.527V25.2759H153.238ZM142.761 17.1435C142.589 17.2358 142.392 17.3342 142.156 17.4351C141.836 17.5738 141.511 17.6968 141.181 17.8043C140.858 17.9081 140.53 17.9935 140.197 18.0602C139.907 18.1202 139.611 18.1527 139.315 18.1574C139.277 18.1574 139.152 18.1574 139.114 18.1574C138.436 18.1574 137.884 17.5705 137.876 16.8433V16.8273C137.877 16.7663 137.881 16.7055 137.89 16.6451C137.891 16.6165 137.896 16.5881 137.902 16.5602C137.929 16.3907 137.991 16.2288 138.085 16.0853C138.109 16.0496 138.135 16.0127 138.16 15.9794C138.185 15.9443 138.214 15.9117 138.245 15.8822C138.303 15.8171 138.369 15.7596 138.441 15.7112C138.619 15.5863 138.829 15.5146 139.046 15.5045C139.085 15.5045 139.169 15.5045 139.188 15.5045C139.889 15.5184 140.579 15.6776 141.216 15.9721C141.778 16.2033 142.305 16.5127 142.781 16.8912C142.843 16.9405 142.904 16.9921 142.959 17.0438C142.895 17.0684 142.831 17.1041 142.761 17.1435Z" fill="#413C3C"/>
<path d="M128.757 12.8614C128.262 11.6596 127.551 10.5589 126.659 9.61409C125.772 8.68494 124.714 7.93651 123.542 7.41025C122.353 6.87968 121.065 6.60547 119.763 6.60547C118.461 6.60547 117.173 6.87968 115.984 7.41025C114.819 7.93431 113.768 8.68227 112.891 9.61163C112.002 10.559 111.293 11.6602 110.799 12.8614C110.284 14.1099 110.023 15.4485 110.031 16.799C110.027 18.1491 110.288 19.4869 110.799 20.7366C111.29 21.9473 111.999 23.0575 112.891 24.0123C113.771 24.9436 114.823 25.6957 115.989 26.2272C117.175 26.7656 118.462 27.0442 119.764 27.0442C121.067 27.0442 122.354 26.7656 123.54 26.2272C124.709 25.6935 125.766 24.9418 126.654 24.0123C127.55 23.0594 128.261 21.9488 128.752 20.7366C129.263 19.487 129.524 18.1492 129.52 16.799C129.53 15.4488 129.27 14.1102 128.757 12.8614ZM125.604 19.4557C125.293 20.2545 124.837 20.9893 124.261 21.6238C123.697 22.2444 123.017 22.7482 122.259 23.1066C121.484 23.4681 120.639 23.6554 119.784 23.6554C118.929 23.6554 118.084 23.4681 117.309 23.1066C116.55 22.7482 115.869 22.2444 115.304 21.6238C114.108 20.3039 113.454 18.5813 113.473 16.8002C113.468 15.888 113.635 14.9831 113.965 14.1325C114.276 13.3288 114.731 12.589 115.309 11.9496C115.873 11.3277 116.552 10.8216 117.309 10.4594C118.085 10.0995 118.929 9.91308 119.784 9.91308C120.639 9.91308 121.483 10.0995 122.259 10.4594C123.016 10.8196 123.696 11.3241 124.261 11.9447C124.839 12.5837 125.296 13.3236 125.607 14.1276C125.936 14.9782 126.103 15.8831 126.099 16.7953C126.104 17.7054 125.936 18.6083 125.604 19.4557Z" fill="#413C3C"/>
<path d="M104.039 12.8614C103.547 11.6601 102.838 10.5594 101.948 9.61409C101.063 8.68517 100.006 7.93674 98.8354 7.41025C97.6463 6.87968 96.3587 6.60547 95.0565 6.60547C93.7544 6.60547 92.4668 6.87968 91.2776 7.41025C90.1102 7.93392 89.057 8.68188 88.178 9.61163C87.2914 10.5591 86.585 11.6604 86.0935 12.8614C85.5779 14.1097 85.3164 15.4484 85.3244 16.799C85.3204 18.1493 85.5817 19.4872 86.0935 20.7366C86.5818 21.947 87.2884 23.0573 88.178 24.0123C89.0582 24.9436 90.1104 25.6957 91.2764 26.2272C92.4622 26.7656 93.7493 27.0442 95.0516 27.0442C96.3539 27.0442 97.6411 26.7656 98.8268 26.2272C99.9965 25.6938 101.054 24.942 101.941 24.0123C102.835 23.0589 103.544 21.9483 104.033 20.7366C104.544 19.487 104.805 18.1492 104.801 16.799C104.811 15.4489 104.553 14.1103 104.039 12.8614ZM100.887 19.4557C100.577 20.2541 100.123 20.9889 99.5479 21.6238C98.9836 22.2444 98.303 22.7482 97.5446 23.1066C96.7697 23.4681 95.9251 23.6554 95.0701 23.6554C94.215 23.6554 93.3704 23.4681 92.5955 23.1066C91.8364 22.7482 91.155 22.2444 90.5898 21.6238C89.3976 20.3017 88.7446 18.5805 88.76 16.8002C88.7557 15.888 88.9227 14.9831 89.2522 14.1325C89.5616 13.3285 90.0168 12.5884 90.5947 11.9496C91.1575 11.3281 91.8358 10.822 92.5918 10.4594C93.3671 10.0995 94.2116 9.91308 95.0664 9.91308C95.9212 9.91308 96.7656 10.0995 97.5409 10.4594C98.3006 10.8207 98.9824 11.3269 99.5479 11.9496C100.126 12.5887 100.582 13.3286 100.893 14.1325C101.223 14.9831 101.39 15.888 101.385 16.8002C101.389 17.709 101.22 18.6101 100.887 19.4557Z" fill="#413C3C"/>
<path d="M80.0899 23.0978C79.133 24.28 77.9473 25.2568 76.6039 25.9698C75.2703 26.6739 73.7866 27.0461 72.2786 27.0551C70.9871 27.0625 69.7099 26.7835 68.5391 26.2381C67.3878 25.7036 66.3507 24.9514 65.485 24.0231C64.6078 23.0734 63.9155 21.9684 63.4436 20.7648C62.9474 19.5031 62.6968 18.1582 62.7053 16.8025C62.697 15.4522 62.9572 14.1138 63.4706 12.8649C63.9667 11.6646 64.6753 10.5637 65.5625 9.6151C66.4388 8.68548 67.4895 7.93746 68.6548 7.41372C69.8427 6.87807 71.1318 6.60364 72.4349 6.60896C73.6504 6.60467 74.8547 6.84052 75.9788 7.30297C76.9792 7.71519 77.9771 8.38828 78.9529 9.30255L77.0038 11.6578C76.279 11.0425 75.5727 10.6143 74.9033 10.3743C74.1088 10.0887 73.2706 9.94373 72.4263 9.9461C71.5653 9.94304 70.7141 10.1296 69.9333 10.4925C69.1708 10.8472 68.4836 11.3452 67.9091 11.9592C67.3251 12.5919 66.8658 13.3292 66.5555 14.1323C66.2249 14.9826 66.0579 15.8877 66.0633 16.8001C66.0565 17.7085 66.2236 18.6099 66.5555 19.4555C66.8675 20.2544 67.3234 20.9892 67.9005 21.6236C68.471 22.248 69.1599 22.7529 69.9271 23.1089C70.7078 23.4724 71.559 23.6589 72.4201 23.6552C73.4529 23.6503 74.4713 23.4122 75.3992 22.9587C76.2372 22.5588 77.085 21.9202 77.9279 21.0539L80.0899 23.0978Z" fill="#413C3C"/>
<path d="M52.2154 25.1675C52.2136 25.1302 52.2037 25.0938 52.1863 25.0608C52.169 25.0277 52.1446 24.9989 52.115 24.9763C52.0853 24.9537 52.0511 24.9378 52.0146 24.9298C51.9782 24.9218 51.9405 24.9219 51.9041 24.93C50.8862 25.1314 49.8345 25.0799 48.8413 24.7798C47.7504 24.4488 46.7681 23.8316 45.9964 22.9925C45.2247 22.1533 44.6919 21.1227 44.4533 20.0079C44.373 19.6329 44.1664 19.2969 43.8681 19.0559C43.5698 18.8149 43.1978 18.6836 42.8143 18.6839H42.7811C41.1998 18.6847 39.6463 18.2681 38.2776 17.4761C36.9089 16.6842 35.7736 15.545 34.9863 14.1736C34.1989 12.8022 33.7876 11.2473 33.7938 9.66605C33.8 8.08477 34.2235 6.53315 35.0215 5.16799C35.5524 4.26646 36.2347 3.46309 37.0383 2.79311C37.0709 2.76513 37.0959 2.72939 37.1111 2.6892C37.1262 2.64901 37.131 2.60564 37.125 2.56311C37.119 2.52057 37.1024 2.48024 37.0767 2.44581C37.051 2.41138 37.0171 2.38398 36.978 2.36612C36.0181 1.92417 35.0318 1.54198 34.0248 1.22175C33.9778 1.20723 33.9277 1.2061 33.8801 1.21849C33.8325 1.23088 33.7892 1.2563 33.7553 1.29189C32.9815 2.12412 32.3249 3.05809 31.8037 4.06791C30.8938 5.84312 30.4279 7.81246 30.4458 9.80719C30.4637 11.8019 30.965 13.7626 31.9066 15.5212C32.8483 17.2797 34.2022 18.7838 35.8525 19.9045C37.5028 21.0252 39.4001 21.729 41.382 21.9558C41.428 21.9614 41.4716 21.9795 41.508 22.0082C41.5445 22.0368 41.5724 22.0749 41.5887 22.1183C42.2837 23.9641 43.5248 25.5543 45.1466 26.6768C46.7684 27.7994 48.6938 28.4009 50.6662 28.4012C51.0899 28.4009 51.5132 28.3738 51.9336 28.32C51.9922 28.3119 52.0462 28.284 52.0869 28.2411C52.1276 28.1982 52.1525 28.1427 52.1575 28.0838C52.2076 27.4341 52.233 26.7778 52.2338 26.1149C52.2338 25.7975 52.2277 25.4816 52.2154 25.1675Z" fill="#413C3C"/>
<path d="M43.7379 29.75C41.9992 38.19 34.3319 44.4927 25.2938 44.0866C15.9112 43.6658 8.36812 35.9517 8.13433 26.5617C7.88823 16.4395 16.0514 8.12744 26.1182 8.12744C26.4714 8.12744 26.8196 8.13852 27.1679 8.15821C27.1346 8.50644 27.1113 8.8596 27.1002 9.21521C26.772 9.19388 26.4382 9.18363 26.0985 9.18445C17.3349 9.19552 9.93087 16.0076 9.24055 24.7442C8.4518 34.7003 16.3295 43.0493 26.1182 43.0493C34.4377 43.0493 41.3765 37.0136 42.7867 29.0929C43.0931 29.3267 43.4106 29.5469 43.7379 29.75Z" fill="#413C3C"/>
<path d="M51.6137 31.7176L51.6177 31.7184L51.6208 31.7209L51.6225 31.7246L51.6223 31.7287C49.0505 43.4431 38.59 52.2339 26.1175 52.2339C11.7157 52.2339 0 40.517 0 26.1151C0 11.7132 11.7157 1.0961e-05 26.1175 1.0961e-05C27.4827 -0.00124189 28.8458 0.104909 30.1942 0.317482L30.1984 0.319057L30.2012 0.322486L30.2019 0.326859L30.2004 0.331018C29.4773 1.29944 28.8687 2.34824 28.3866 3.45651L28.3823 3.45766L28.378 3.45651C27.6323 3.38514 26.8792 3.34576 26.1175 3.34576C14.2739 3.35069 4.51597 12.438 3.44542 24.006C2.12632 38.3217 14.4868 50.393 28.7668 48.7281C38.2639 47.6207 45.9939 40.6425 48.2285 31.5281C48.2291 31.5259 48.2304 31.524 48.2322 31.5227C48.234 31.5213 48.2361 31.5206 48.2384 31.5207C49.0385 31.6743 49.8514 31.7518 50.6662 31.7521C50.9849 31.7533 51.2999 31.7471 51.6137 31.7176Z" fill="#413C3C"/>
</g>
</svg>
